<?xml version="1.0" encoding="UTF-8"?>
<svg id="Layer_2" data-name="Layer 2" xmlns="http://www.w3.org/2000/svg" xmlns:xlink="http://www.w3.org/1999/xlink" viewBox="0 0 217.9 70.12">
  <defs>
    <style>
      .cls-1 {
        fill: url(#linear-gradient-2);
      }

      .cls-2 {
        fill: #fff;
      }

      .cls-3 {
        fill: url(#linear-gradient-6);
      }

      .cls-4 {
        fill: url(#linear-gradient-5);
      }

      .cls-5 {
        fill: url(#linear-gradient-7);
      }

      .cls-6 {
        fill: url(#linear-gradient-3);
      }

      .cls-7 {
        fill: url(#linear-gradient);
      }

      .cls-8 {
        fill: url(#linear-gradient-4);
      }
    </style>
    <linearGradient id="linear-gradient" x1="-1686.18" y1="981.27" x2="-1672.85" y2="969.69" gradientTransform="translate(-1724.52 -634.51) rotate(169.24) scale(1.04 -1.01)" gradientUnits="userSpaceOnUse">
      <stop offset="0" stop-color="#0131b9"/>
      <stop offset="1" stop-color="#d90000"/>
    </linearGradient>
    <linearGradient id="linear-gradient-2" x1="-1673.16" y1="70.97" x2="-1643.53" y2="70.51" gradientTransform="translate(-1537.59 89.7) rotate(179.64) scale(1.04 .99) skewX(-.77)" gradientUnits="userSpaceOnUse">
      <stop offset="0" stop-color="#114fee"/>
      <stop offset=".48" stop-color="#d90000"/>
      <stop offset="1" stop-color="#fef163"/>
    </linearGradient>
    <linearGradient id="linear-gradient-3" x1="-1701.63" y1="-113.75" x2="-1689.7" y2="-137.81" gradientTransform="translate(-1491.32 16.15) rotate(176.25) scale(1 .9) skewX(-1.55)" gradientUnits="userSpaceOnUse">
      <stop offset="0" stop-color="#fef163"/>
      <stop offset=".51" stop-color="#d90000"/>
      <stop offset="1" stop-color="#0131b9"/>
    </linearGradient>
    <linearGradient id="linear-gradient-4" x1="-1623.09" y1="-2.6" x2="-1630.79" y2="-28.04" gradientTransform="translate(-1486.02 114.81) rotate(176.85) scale(1.04 1.01) skewX(-.47)" gradientUnits="userSpaceOnUse">
      <stop offset="0" stop-color="#fef163"/>
      <stop offset=".51" stop-color="#d90000"/>
      <stop offset=".77" stop-color="#0131b9"/>
    </linearGradient>
    <linearGradient id="linear-gradient-5" x1="182.82" y1="27.07" x2="191.05" y2="44.3" gradientTransform="translate(0 82.6) scale(1 -1)" gradientUnits="userSpaceOnUse">
      <stop offset=".09" stop-color="#0131b9"/>
      <stop offset=".16" stop-color="#1a2ba3"/>
      <stop offset=".3" stop-color="#5b1c6b"/>
      <stop offset=".51" stop-color="#c30412"/>
      <stop offset=".55" stop-color="#d90000"/>
      <stop offset=".91" stop-color="#fef163"/>
    </linearGradient>
    <linearGradient id="linear-gradient-6" x1="165.15" y1="43.78" x2="176.03" y2="47.31" gradientTransform="translate(0 82.6) scale(1 -1)" gradientUnits="userSpaceOnUse">
      <stop offset=".26" stop-color="#e50040"/>
      <stop offset=".99" stop-color="#5e17a9"/>
    </linearGradient>
    <linearGradient id="linear-gradient-7" x1="-1686.25" y1="974.82" x2="-1666.08" y2="995.19" gradientTransform="translate(-1724.52 -634.51) rotate(169.24) scale(1.04 -1.01)" gradientUnits="userSpaceOnUse">
      <stop offset="0" stop-color="#5e17a9"/>
      <stop offset=".53" stop-color="#d90000"/>
      <stop offset="1" stop-color="#fef163"/>
    </linearGradient>
  </defs>
  <g id="Layer_1-2" data-name="Layer 1">
    <g>
      <path class="cls-7" d="M177.6,11.11c-2.27-1.18-3.77-3.49-4.1-6.43,.26-.2,.52-.39,.78-.59,1.72,1.72,2.87,4.17,3.32,7.02h0Z"/>
      <path class="cls-1" d="M195.83,0V.03c-.86,3.7-3.39,7.07-6.48,9.28-1.96,1.4-4.14,2.33-6.27,2.59-5.52,.66-8.87-2.68-9.14-7.44-1.48,1.02-2.86,2.17-4.12,3.41,1.09,6.53,6.34,10.14,12.82,9.7,2-.14,4.09-.67,6.13-1.55,1.78-.76,3.51-1.79,5.1-3.03,.56-.44,1.1-.9,1.62-1.38,2.82-2.61,5.09-5.87,6.41-9.43-1.93-.97-3.96-1.71-6.06-2.18h-.01Z"/>
      <path class="cls-6" d="M217.67,24.95c-.15-1.51-.38-2.51-.68-3.6-4.04,1.42-7.27,2.38-10.76,1.56-.85-.2-1.6-.39-2.31-.61-2.04-.65-3.6-1.64-5.45-4.36-1.08-1.59-1.54-3.91-1.3-6.41,.32-3.23,1.82-6.76,4.7-9.38-1.92-.94-3.56-1.48-4.06-1.65S196.15,.04,195.77,0c-2.41,2.83-3.89,6.71-4.63,9.78-.11,.45-.2,.9-.27,1.36-.25,1.61-.27,3.22-.03,4.81,.29,1.86,.95,3.69,2.04,5.44,1.08,1.73,2.56,3.27,4.33,4.55,1.53,1.11,3.28,2.02,5.18,2.7,.48,.17,.97,.33,1.47,.47,4.13,1.18,9.01,1.43,14,.48,.03-.53,0-1.03,0-1.35s-.05-1.77-.2-3.28h0Z"/>
      <path class="cls-8" d="M201.28,55.18c-3.17-3.17-5.26-7.67-5.55-11.67-.22-3.06,.31-5.9,1.48-7.84,2-3.33,3.64-4.57,5.75-5.45,.74-.3,1.53-.56,2.42-.85,3.61-1.17,8.2-1.24,12.47,.1,.09-1.13,.04-2.56-.07-3.65s-.26-2.26-.42-3.15-.26-.98-.35-1.46c-5.12-.72-9.9-.13-14.11,1.42-.51,.19-1.02,.4-1.51,.62-1.96,.87-3.77,2-5.38,3.34-1.86,1.56-3.44,3.41-4.64,5.5-1.21,2.1-1.98,4.31-2.37,6.57-.33,1.93-.38,3.89-.17,5.85,.06,.55,.14,1.11,.23,1.66,.68,3.83,2.35,7.69,4.99,11.2,2.45-.4,4.67-.98,7.21-2.18h.02Z"/>
      <path class="cls-4" d="M194.18,42.39c-1.47-1.39-3.1-2.55-4.81-3.44-1.94-1-3.98-1.65-5.97-1.86-2.01-.22-3.83-.03-5.49,.47-1.42,.43-2.71,1.09-3.88,1.94-.4,.29-.79,.61-1.16,.94-1.89,1.71-3.43,4.2-4.34,6.9,1.16,1.4,2.35,2.58,3.71,3.8l-.03-.02c.74-3.29,2.55-5.91,5.15-7.21,1.6-.81,3.5-1.11,5.62-.76,2.14,.35,4.25,1.46,6.08,3.09,2.93,2.61,5.14,6.55,5.6,10.88v.14c2.75-.49,4.53-1.05,6.68-2.1-1.02-4.14-3.04-8.2-5.65-11.18-.49-.56-.99-1.08-1.52-1.58h.01Z"/>
      <path class="cls-3" d="M176.7,43.55c.06-.41,.12-.83,.16-1.25,.17-1.73,.12-3.52-.13-5.28-.3-2.04-.87-4.04-1.73-5.86-.89-1.88-1.95-3.38-3.14-4.55-.96-.94-1.99-1.66-3.07-2.16-.3-.14-.6-.26-.9-.37-2.02-.71-3.87-.67-5.84,.15-.03,.3-.08,.61-.11,.91-.06,.66-.14,1.33-.15,1.99,0,.73-.06,1.46-.02,2.18,4.21-2.33,7.7,.81,9.38,4.6,.71,1.61,1.04,3.98,.89,6.38-.18,3.07-.96,6.2-2.81,7.89,.98,1.11,2.03,2.15,3.17,3.08,.27,.22,.49,.39,.77,.59,1.87-2.15,3.03-5.05,3.55-8.31h-.02Z"/>
      <path class="cls-5" d="M168.03,30.66c-2.21,.97-4.08,1.13-6.14,.46,0-.31-.1-.62-.11-.93,0-.73-.04-1.46,0-2.19,.04-.67,.03-1.33,.11-2,1.64,.77,3.3,.65,5.07-.23,.39-.2,.79-.44,1.17-.72,1.42-1.05,2.64-2.43,3.59-4.37s1.48-4.44,1.5-6.36h0c1.22,1.19,2.7,2.05,4.34,2.57h0c-.34,1.94-.94,4.06-1.99,6.13s-2,3.2-3.4,4.63c-1.06,1.08-2.21,2.01-3.32,2.6-.28,.15-.55,.28-.83,.4h.01Z"/>
    </g>
    <g>
      <path class="cls-2" d="M64.18,59.52c-.1,.46-.15,.79-.14,1.06v.9c0,.39-.03,.69-.02,.9,.02,.45,.09,.81,.19,1.1,.03,.09,.04,.18,.04,.3,0,.18-.01,.42-.09,.75-.03,.03-.03,.09-.02,.15,0,.09,.09,.12,.27,.11h.06c.15,0,.24,.08,.25,.29,0,.15-.3,.1-.33,.1-1.8-.05-2.23-1.05-2.52-2.97-.04-.21-.05-.54-.07-.96-.03-.84,.04-2.04,.06-2.4,.02-.24,.07-.63,.07-1.2,0-.09,0-.15-.04-.18l-.12,.12c-.88,1.24-1.49,2.55-1.89,3.92-.4,1.37-.66,2.37-.76,2.97-.09,.69-.15,.82-.39,.83-.09,0-.33-.05-.7-.12-.18-.02-.6-.07-1.3-.19-.6-.1-.83-.48-.9-1.44-.02-.63,.05-1.68,.07-2.04l.06-.78c0-.54,.07-1.32,.24-2.38l.12-.79c.05-.33,.12-.67,.23-1l.16-.64,.25-1.21,.39-1.61,.4-1.37,.7-2.22,.24-.76c.24-.7,.4-1.22,.45-1.55,.02-.24,.11-.21,.33-.1,.65,.42,1.17,.71,1.51,.9,.46,.22,.5,.49,.62,1.21,0,.03-.06,.12-.09,.12-.06-.03-.15-.05-.24-.05-.21,0-.23,.34-.25,.43-.21,.76-.37,1.33-.5,1.73-.13,.58-.4,1.28-.63,2.25-.24,.7-.47,1.73-.72,3.03-.03,.12-.05,.18-.02,.21,.12,.02,.15-.1,.17-.13l.54-.77c.34-.52,.63-.9,.89-1.11,.26-.28,.53-.41,.8-.42,.21,0,.39,.04,.61,.16l1.65,.69c.4,.13,.69,.63,.71,1.2,0,.21-.01,.42-.07,.63-.05,.24-.1,.6-.11,1.06l-.07,.63-.1,.63h0Zm-7.59,.96c-.03,.09,.04,.18,.07,.21,.12,.02,.11-.15,.11-.19,0-.09,.05-.21-.07-.24-.03,0-.12,.12-.11,.21h0Zm.21-.66l-.06,.06,.03,.06,.03-.03v-.09Zm.17,.53c.03,.06,.04,.15,.04,.24,.03-.03,.09-.06,.08-.15,.03-.09,0-.15,0-.18l-.11,.09h-.01Zm.07-2.01l-.03-.06-.03,.06v.09l.06-.09Zm.35-3.29s.02-.12-.07-.12c-.15,0-.17,.19-.17,.22s-.05,.21,.07,.21c.15,0,.05-.3,.17-.31Zm-.09,1.56s-.03,.06-.03,.09l.09-.03c0-.06,0-.12,.02-.15l-.09,.09h.01Zm.42-1.64c.06-.06,.09-.12,.08-.18,0-.12-.37-.29-.29-.44,.03-.03,0-.09,0-.12-.03,.03-.06,.09-.05,.12-.03,.03-.03,.12-.02,.21,0,.15,.07,.36,.08,.51,0,.12-.02,.24-.08,.33-.03,.03-.02,.21-.02,.3,0,.03,.03,.06,.07,.15,.09-.03,.12-.09,.12-.12l.12-.76h-.01Zm.2-1c0,.06,.03-.09,.1-.45v-.09c.05-.21,.1-.42,.18-.61,.03-.03,.03-.06,.03-.12,0-.12-.22-.38-.2-.59-.08,.24-.17,.4-.19,.61-.03,.03,0,.18,.01,.27,0-.06,.02-.12,.11-.21,0-.03,0-.18,.11-.15v.21c-.2,0,.09,.6-.28,.34-.03,.09-.2,.31-.17,.34s.06,.06,.12,.06c.03,0,.17-.16,.26-.13-.09,.06-.14,.22-.13,.49l.03,.06,.02-.03Zm-.2-1.28l.02-.12-.03-.03s-.03,.06-.03,.09l.03,.06h.01Zm.26,6.77l-.1-.21c-.03,.09-.09,.12-.11,.21-.03,.03,.04,.18,.07,.21l.14-.21Zm-.11-5.28c-.06,.06-.09,.09-.09,.12-.03,.03,0,.09,0,.12,0,0,.06-.03,.06-.06l.02-.18h.01Zm.16,4.2l-.03-.06v.09h.03v-.03Zm0-3.75l.03-.06-.03,.03v.03Zm.21,2.39c-.12,.03-.08,.27-.11,.3,.03,.03-.05,.24,.04,.27,.03,.03,.06,0,.06-.09v-.48h.01Zm-.03-3.27l-.03,.03,.06,.09,.06-.06-.09-.06Zm.14-2.71l-.03-.03-.06,.06s.03,.03,.06,.03,.03-.03,.03-.06Zm.08,4.32l-.03-.06-.06,.06s.03,.06,.06,.09l.03-.09Zm.22-5.86v-.06h-.03s-.03,.03-.03,.03l.06,.03Zm-.04,8.2v.15l.06-.09c.03-.09,.02-.15,0-.21-.03,.09-.06,.12-.05,.15h0Zm.03-5.4l.03,.06,.03-.06-.03-.06-.03,.06Zm0,2.4l.07,.18c.12-.12,.2-.22,.23-.31l-.07-.18-.23,.31Zm.12,4.68l.2-.37s0-.06-.03-.09c0,0-.06,.09-.17,.28v.18Zm0-2.28s.06,.06,.06,.03c.03,0,.06-.03,.09-.06-.03-.03-.06-.06-.09-.06l-.06,.09Zm.41,4.28l-.02,.36c-.15,0-.17,.19-.17,.22-.03,.06-.08,.21-.1,.45l.09,.03,.1-.42,.08-.27,.02-.21v-.15h0Zm.2-3.35c-.08,.12-.17,.25-.25,.46-.03,.09-.06,.12-.05,.15l.03,.03c.05-.15,.14-.31,.22-.46l.05-.18Zm-.17,1.09s-.09,.06-.11,.16v.15c.03-.12,.09-.21,.12-.25v-.06h-.01Zm.02-6.3l.03,.12,.06-.06-.07-.15-.03,.09h.01Zm.19,7.98l-.03-.03-.03,.06v.03l.06-.06Zm.26-2.62l-.03-.06c-.08,.15-.17,.22-.2,.31v.09s.23-.34,.23-.34Zm.03-.81l-.12,.12s.06,0,.09,.03c.03-.03,.03-.09,.02-.15h.01Zm.22-.4c-.15,.13-.17,.31-.17,.34,.15-.07,.2-.16,.23-.31,0,0-.06-.03-.06-.03Zm.03,.72s.06-.06,.06-.09v-.06s-.06,.03-.09,.03l.04,.12h-.01Zm.16,1.1c-.08,.15-.11,.27-.11,.3-.03,0,.03,.06,.03,.09,0-.03,.03-.06,.05-.15l.02-.24h.01Zm.53-1.01l-.31,.49c0,.06,.03,.09,.06,.09,.15-.1,.22-.4,.34-.43l-.1-.15h.01Zm.39-.68l-.03,.06,.06,.06s.03,0,0-.03l-.03-.09Zm2.5,3.27l.09-.03-.06-.06s-.03,0-.03,.03v.06Zm.08,.36c0,.09,0,.18,.04,.21l.06-.12c0-.09,0-.15-.04-.18,0,0-.06,.09-.06,.09Zm.25,2.48l-.07-.21s-.06,.06-.06,.09l.07,.15,.06-.03Z"/>
      <path class="cls-2" d="M73.3,60.28l-.47,.95c-.3,.76-.79,1.44-1.39,2.01l-.43,.56c-.14,.25-.31,.46-.52,.65-.43,.41-.94,.61-1.48,.63-.51,.02-1.12-.14-1.76-.44l-1.04-.38c-1.32-.67-1.65-1.44-1.62-3,.06-2.37,.81-4.59,2.13-6.96,.59-1.01,1.22-1.76,1.86-2.29,.35-.25,.65-.39,.86-.39,.18,0,.45,.1,.85,.3,.31,.2,.71,.39,1.16,.59,.55,.22,.92,.56,1.12,1.01,.13,.38-.29,1-.35,1.12-.09,.09-.32,.31-.4,.47-.53,.98-1.04,1.72-1.57,2.25-.37,.4-.75,.84-1.09,1.33-.31,.46-.51,.77-.6,.86-.12,.12-.26,.22-.41,.29-.67,.54-.85,1.32-.9,2.32,.01,.27,.02,1.17,.25,1.76,.42-.11,.86-.36,1.29-.77,.75-.72,1.7-1.78,2.88-3.23l1.06-1.33c.2-.16,.53-.2,.4-.56,0-.03,.15-.13,.24,0,.03,.06,.06,.09,.09,.09s.14-.19,.23-.16c.09,.03,.07,.24,.1,.27-.09,.09-.02,.24-.05,.33,.09,0,.18,.08,.3,.11-.11,.3-.36,.85-.78,1.65l.04-.04Zm-4.87-2.51c1.04-1.15,1.68-2.44,2.42-4.27-.51,.02-.89,.3-1.2,.86,0,0-.17,.28-.51,.83-.59,.95-.88,1.44-.85,2.19l.04,.3c.03,.09-.02,.12-.02,.12,.09,.09,.09-.03,.12-.03h0Zm5.48,.45s-.06,0-.09-.03l.09-.03v.06Z"/>
      <path class="cls-2" d="M81.23,60.33c-.63,.02-1.12-.2-1.47-.63-.47-.49-.73-1.02-.84-1.62-.22,.46-.39,.85-.5,1.19l-.03,.12c-.08,.18-.17,.37-.31,.55-.25,.58-.66,1.47-1.22,2.66-.16,.46-.27,.76-.36,.88-.2,.37-.52,.53-.91,.49-.75-.06-1.14-.11-1.21-.13-.51-.07-.9-.12-1.12-.2-.34-.2-.56-.52-.67-.96-.07-.24-.11-.48-.12-.72-.02-.57,.13-1.33,.15-1.54,.02-.15,.07-.39,.09-.72,.02-.21,.07-.66,.14-.94-.01-.33,.15-.88,.17-1.15,.02-.24,.1-.48,.18-.73,.13-.46,.28-1.21,.39-1.58,.1-.51,.17-.91,.25-1.15l.78-2.34c.08-.27,.25-.4,.49-.41,.09,0,.18,0,.27,.02,.33,.08,.61,.22,.83,.42,.16,.14,.25,.23,.31,.26,.28,.17,.43,.31,.53,.46,.03,.03,.12,.03,.15,.05-.28,.52-.55,1.31-.81,2.31l-.43,1.37-.22,1.33c-.18,.82-.27,1.48-.28,2.02l2.53-5.11c.33-.04,.78,0,1.3,.19l1.07,.38,.18,.02-.03,.06c.04,.24,.02,.39,.02,.51,0,.06-.03,.12-.05,.21,0,.09,.04,.18,.01,.39-.03,.03-.03,.09-.02,.18,0,.06,.04,.18,.08,.39v.12c-.02,.09-.16,.34-.07,.48l.03,.12c0,.15-.05,.27-.08,.39l-.03,.06c-.06,0-.09,0-.09-.03v.09c0,.12,.04,.24,.11,.36,.03,.03,.04,.15,.07,.18,.16,.11,.13,.32,.14,.44,0,0,.03,0,.03,.03-.06,.09-.08,.15-.08,.21,0,.15,.29,.47,.26,.62,.16,.11,.28,.2,.37,.23,.09,.09,.18,.11,.22,.14h-.24l.04,.03Zm-2.89-1.65l-.06,.12h.06s.06-.03,.06-.09c0,0-.06-.03-.06-.03Z"/>
      <path class="cls-2" d="M80.86,62.24c-.01-.33,0-.81,.06-1.44l.04-.63,.13-1.39c.19-1.39,.5-2.54,.95-3.46,.2-.34,.29-.91,.37-1.4,.07-.42,.21-.85,.46-1.31,.25-.4,.73-.66,1.12-.58,.93,.05,1.54,.15,2.03,.52,.16,.14,.34,.2,.58,.22,.33,.11,.52,.31,.75,.75,.38,.5,.67,.9,.83,1.2,.09,.12,.19,.29,.32,.53l.42,.67,2.34-.9c.15,.08,.22,.17,.22,.32,0,.03-.02,.15-.08,.33l-.59,.92c-.03,.09-.09,.12-.24,.13-.24,.13-.65,.3-1.27,.53-.21,.1-.32,.25-.34,.43-.08,.33-.23,.94-.25,1.27-.08,.39-.08,1.05-.43,1.37-.09,.03-.11,.24-.11,.27-.14,.34-.31,.55-.46,.65-.29,.34-.48,.68-.62,1.01-.47,.95-1.08,1.57-1.88,1.93-.27,.13-.81,.09-.93,.1-.87,.09-1.74-.08-2.6-.56-.52-.22-.82-.87-.81-1.5v.02Zm3.74-4.68l-1.03-.29c-.08,.36-.4,1.25-.34,1.97l-.02,.27c-.08,.39-.12,.85-.16,1.39-.01,.51,.04,1.08,.12,1.71,0,.09,.07,.27,.17,.56,1.52-1.77,2.48-3.34,2.92-5.13l-1.67-.48h0Zm1.9-1.24c0-.21-.05-.45-.09-.78-.16-.92-.46-1.69-.93-2.37-.32,.28-.91,.63-.95,1.15v.12c-.13,.33-.21,.64-.2,.94,.02,.45,.22,.92,.56,1.36,.1,.18,.22,.23,.37,.2,.27-.04,.63-.11,1.07-.25,.15-.04,.17-.22,.17-.37Z"/>
      <path class="cls-2" d="M109.64,45.9l-.18,.1c-.36,.04-.63,.08-.78,.09-.24,0-.45,0-.66-.06-.06-.03-.15-.02-.3-.02h-.33c-.15,.02-.24,.02-.33,0-.03,0-.14,.21-.29,.19-.09-.09-.19-.14-.34-.14l-.36,.04c-.09,.03-.24,.07-.45,.08-.15,0-.24,0-.33-.02-.03,.03-.09,.06-.12,.06-.23,.16-.32,.16-.58,.38-.03,0-.03,.03-.03,.09-.07,.39-.24,.76-.47,1.07-.03,.12-.2,.37-.19,.61,.03,.09-.71,.21-.83,.3l-.05,.12c0,.12,.35,.41,.26,.56-.08,.15-.23,.22-.41,.2-.03,0-.08,.24-.17,.37,.04,.12,.28,.17,.25,.26,0,.12,.08,.39,0,.54-.11,.24-.21,.85-.53,1.13-.03,.03-.08,.15-.11,.3,0,.09-.02,.21-.08,.3-.2,.22-.22,.61-.3,.82l-.32,1.15c-.05,.15-.08,.36-.04,.6v.12c.01,.21-.1,.39-.33,.55-.09,.06-.11,.15-.11,.24-.17,.97-.33,1.63-.43,2.03-.02,.27-.1,.51-.12,.73,.07,.12,.1,.24,.1,.33,0,.15-.08,.39-.1,.63-.04-.21-.07-.33-.08-.39-.13,.42-.24,.91-.3,1.45-.02,.27-.07,.51-.09,.66h-.09c-.15,0-.08,.25-.17,.34,.03,.03,.18-.04,.18,.05,.06,.12,.1,.27,.11,.42-.1,.6-.13,1.24-.11,1.9-.02,.36-.04,.63-.03,.84,.01,.36,.08,.66,.21,.86-.03-.03,0-.18,0-.21,.09,.03,.1,.18,.22,.26-.03,0-.15,.04-.12,0l-.03-.03s-.06-.03-.09-.03c-.03,.12-.05,.21-.05,.24l.07,.36,.23,.44c.45-.08,.77,.42,.89,.54,0,.48-.16,.58-.67,.57-.57,.02-1.35,0-1.92-.08-.57-.07-1.14-.74-1.28-1.36v-.12c0-.12-.01-.21-.04-.24,.15,0,.21-.04,.17-.13-.1-.21-.13-.35-.14-.44,0-.09,.02-.24,.1-.48v-.09c0-.15-.1-.24-.31-.26,.03-.09,.18-.07,.21-.1,.02-.15,.02-.36,0-.69-.01-.3-.02-.54-.06-.69,0-.06,0-.09,.03-.12-.15-.05-.22-.14-.22-.23s.05-.18,.14-.33c.06-.06,.08-.12,.08-.15-.03-.03-.06-.12-.07-.21,0-.12,.14-.3,.16-.43,0-.18,.01-.42,.09-.69,.02-.15,.08-.36,.07-.63,0-.21,.02-.39,.04-.6,.2-.94,.33-1.63,.4-2.09-.01-.33,.1-.63,.12-.79,0,.03,.05-.18,.12-.64,.55-2.87,1.17-5.45,1.89-7.7,.03-.09,.14-.25,.31-.43,.02-.15,.11-.36,.19-.58-.06-.03-.15-.02-.24-.02-.24,0-.57,.14-.81,.12l-.03-.06c0-.09,.14-.15,.02-.27-.26,.34-.61,.5-1.09,.52l-.33-.02-.24,.07c-.27,.1-.84,.09-1.2,.14-.03,0-.09,.03-.09,0-.24-.11-1.02,0-1.3-.19-.09-.09-.28-.23-.53-.37l-.52-.34c-.46-.25-1-.95-1.25-1.18-.19-.26-.29-.5-.29-.68,.12-.03,.18,.08,.21,.11,.56,.52,1.23,.76,1.98,.73,.21,0,.39,0,.51-.05,.33-.04,.54-.08,.66-.08,.33-.04,.6-.11,.83-.15h.09c.12,0,.21,0,.3-.05-.09-.15-.19-.26-.28-.32,.6-.02,1.05-.04,1.38-.02h.06c.06,.02,.15,.05,.27,.05,.21,0,.45-.11,.56-.14,.24-.04,.6-.08,1.07-.19,.36-.1,.62-.14,.8-.18,.12-.1,.42-.11,.62-.2,.09-.03,.32-.13,.41-.35,.11-.15,.27-.67,.63-.83v-.12c-.01-.24,.19-.46,.27-.55l.05-.18c.14-.19,.29-.28,.41-.29,.12,0,.27,.02,.46,.1,.43,.28,.86,.51,1.26,.7,.15,.05,.25,.17,.25,.35-.02,.21-.56,.35-.63,.69,.06,.03,.18,.02,.33,.02l.99,.02c.39,0,.63-.02,.78,0,.9-.1,1.74,.02,2.54,.35,.7,.27,1.78,1.73,1.17,1.49-.64-.37-.83-.42-1.22-.37l.04,.02Zm-12.44,18.37s.03-.09,.06-.06v.09s-.03,0-.03,.03l-.03-.06Zm.37-18.51c.09,.09,.18,.08,.24,.02-.16-.2-.16-.17-.24-.02Zm1.35,9.19c-.05,.3-.32,.37,0,.54,.09-.09,.11-.18,.11-.24s-.04-.15-.1-.3h-.01Zm1.36,7.15c.03,.09,.04,.18,.04,.3,0,.24-.04,.6-.06,.75-.07-.21-.1-.36-.11-.42,0-.06,.05-.27,.13-.64h0Zm.42-14.87s-.18,.04-.21,.13c.03,0,.21,.02,.21-.13,.03,0,.15,.11,.24,0h-.24Zm-.09,11.78c.03-.12,0-.24-.01-.27,0,.09-.02,.18,.01,.27Zm.04-2.1c.08-.12,.02-.21,.02-.21-.06,.06-.06,.12-.02,.21Zm.1,1.71c-.03-.09-.04-.12,.05-.12,.03,.06,0,.09-.05,.12Zm.43-3.5c.27-.1,.23-.22,.13-.46-.12,.09-.14,.25-.13,.46Zm.35-1.09s0-.06-.03-.06-.06,.03-.06,.06c-.03,.03,0,.09,.03,.09l.06-.09Zm.78-2.37l-.06-.03s-.06,.06-.05,.12l.12-.09h-.01Zm.08-.33c.15-.1,.02-.3,.05-.33-.08,.15-.11,.24-.05,.33Z"/>
      <path class="cls-2" d="M103.24,61.37c-.01-.33,0-.81,.06-1.44l.04-.63,.13-1.39c.19-1.39,.5-2.54,.95-3.46,.2-.34,.29-.91,.37-1.4,.07-.42,.21-.85,.46-1.31,.25-.4,.73-.66,1.12-.58,.93,.05,1.54,.15,2.03,.52,.16,.14,.34,.2,.58,.22,.33,.11,.52,.31,.75,.75,.38,.5,.66,.9,.83,1.2,.09,.12,.19,.29,.32,.53l.42,.67,2.34-.9c.15,.08,.22,.17,.22,.32,0,.03-.02,.15-.08,.33l-.59,.92c-.03,.09-.09,.12-.24,.13-.23,.13-.65,.3-1.27,.53-.21,.1-.32,.25-.34,.43-.08,.33-.23,.94-.25,1.27-.08,.39-.08,1.05-.43,1.37-.09,.03-.11,.24-.11,.27-.14,.34-.31,.55-.46,.65-.29,.34-.48,.68-.62,1.01-.47,.95-1.08,1.57-1.88,1.93-.27,.13-.81,.09-.93,.1-.87,.09-1.74-.08-2.6-.56-.52-.22-.81-.87-.81-1.5v.02Zm3.74-4.68l-1.03-.29c-.08,.36-.4,1.25-.34,1.97l-.02,.27c-.08,.39-.12,.85-.16,1.39-.01,.51,.04,1.08,.12,1.71,0,.09,.07,.27,.17,.56,1.52-1.77,2.48-3.34,2.92-5.13l-1.67-.48h0Zm1.9-1.24c0-.21-.05-.45-.09-.78-.16-.92-.46-1.69-.93-2.37-.32,.28-.91,.64-.95,1.15v.12c-.13,.33-.21,.64-.2,.94,.02,.45,.22,.92,.56,1.36,.1,.18,.22,.23,.37,.2,.27-.04,.63-.11,1.07-.25,.15-.04,.17-.22,.17-.37h0Z"/>
      <path class="cls-2" d="M118.6,65.67c-.13-.32-.3-.86-.48-1.57l-.28-.95c-.1-.33-.15-.8-.16-.95,0-.12,.02-.18,.11-.21,.23-.16,.13-.43,.13-.52-.03-.03-.09,0-.12,.06s-.06,.06-.15,.04c-.06-.03-.09-.09-.1-.15,0-.12,.08-.39,.32-.4-.1-.21-.32-.47-.33-.68,0-.12,.05-.24,.14-.34-.1-.36-.21-.92-.35-1.19-.03-.03-.12-.03-.24-.02-.14,.22-.31,.61-.45,.86-.14,.28-.54,.89-.67,1.29-.11,.36-.51,.86-.62,1.02-.2,.34-.58,.5-1.15,.52-.51,.02-1.12-.11-1.82-.41-.49-.19-.74-.6-.77-1.23-.02-.54,0-.93,.04-1.2,.21-1.51,.55-2.9,1.04-4.18,.19-.52,.52-1.19,1-2.02,.23-.34,.43-.62,.63-.83,.32-.37,.64-.54,1-.46,.39,.04,.73,.18,1.04,.41,.12,.09,.19,.23,.2,.41,0,.27-.19,.43-.44,.32-.09-.03-.24-.11-.4-.19-.49,.47-.78,.75-.91,1.21-.05,.18-.17,.37-.31,.58-.14,.22-.25,.58-.36,.82-.2,.4-.33,.82-.4,1.28l-.1,.6c-.02,.33-.09,.69-.2,1.15-.08,.27-.09,.66-.07,1.17,0,.39,0,.69-.03,.9v.06c0,.09,.04,.21,.14,.33,.37-.64,.75-1.5,1.19-2.51,.25-.58,.55-1.34,.84-2.28l.52-1.4,.67-1.95c.11-.27,.21-.64,.35-1.03l.32-1c.2-.4,.32-1.09,.34-1.3,.02-.21,.14-.31,.16-.43,.03-.09,.11-.27,.19-.61l.27-.82,.24-.76c.13-.46,.27-.79,.35-1,.08-.15,.22-.52,.44-1.1,.11-.21,.25-.61,.38-1.13,.33-.85,.57-1.49,.71-1.95,.19-.46,.3-.91,.37-1.33,0-.03,.02-.24,.14-.37h.09c.15,0,.36,.04,.61,.15s.86,.39,1.22,.61c.09,.09,.43,.16,.55,.37,.12,.14,.16,.29,.13,.38l-.58,1.94-.64,2.07c-.32,1.06-.56,1.85-.69,2.37l-.21,.88c-.02,.15-.07,.42-.21,.88-.18,.79-.35,1.75-.55,2.87-.21,1.48-.36,3.02-.39,4.67l-.05,1.11c0,.09,0,.18-.02,.21-.06,.09-.08,.18-.08,.3l.04,.24c.11,.45,.19,.89,.2,1.28,0,.27,0,.66-.07,1.17-.02,.18-.02,.3,.08,.39,.09,.09,.16,.26,.2,.5,.05,.6,.19,1.07,.23,1.4,.05,.42,.12,.72,.19,.92,.1,.27,.23,.56,.42,.88,.1,.15,.3,.68,.55,.94,.06,.03,.09,.09,.1,.15l-.02,.15c0,.21,.14,.42,.39,.65-.23,.22-.56,.32-.95,.34-.45,.05-.9-.09-1.36-.37-.62-.4-1.12-1.07-1.55-2.01h.01Zm-.94-7.14c0-.09,.14-.22-.07-.33-.14,.28-.17,.28,.07,.36v-.03Z"/>
      <path class="cls-2" d="M128.13,62.21c-.2-.5-.34-.92-.41-1.21,0-.15-.04-.27-.07-.39-.12,.09-.14,.25-.26,.34l-.32,.25s-.24,.13-.26,.22c-.26,.34-.58,.5-.97,.52-.27,.01-.69-.03-1.21-.13l-.69-.09c-.48-.1-.82-.36-.99-.8-.2-.44-.31-1.07-.34-1.85,0-.72,.12-1.51,.36-2.39,.57-1.67,1-2.77,1.34-3.32,.42-.65,.85-1.17,1.26-1.52,.47-.35,.94-.52,1.42-.54,.27-.01,.51,.01,.75,.09,.52,.19,.88,.33,1.03,.35,.08-.3,.16-.64,.17-1.03l.06-.78c.45,.07,.75,.12,.94,.2,.33,.11,.64,.22,.85,.33,.12,.02,.4,.28,.55,.31,.09-.03,.13,.26,.13,.29,0,.12,0,.54-.14,1.03-.34,1.18-.68,2.67-1,4.45-.29,1.75-.42,3.23-.37,4.43,.03,.69,.11,1.23,.27,1.58,.07,.33,.17,.59,.33,.8,.1,.15,.3,.68,.67,.91,.16,.14,.25,.2,.34,.2,.06,.06,.09,.09,.12,.08,.03,.03,0,.12,0,.15l-.33,.04c-1.32,.08-1.99-.28-2.73-1.46-.13-.21-.29-.56-.52-1.06h.02Zm-2.77-1.75c.73-1.29,1.32-2.42,1.73-3.37l.27-.7,.9-2.47c.24-.67,.37-1.25,.32-1.69-.18-.05-.3-.11-.37-.17-.09-.09-.24-.11-.45-.1-.15,.04-.35,.22-.38,.25-.55,.47-.93,.85-1.16,1.13-.11,.15-.46,.5-.42,.86l-.03,.03c-.15,.04-.2,.22-.23,.31-.09,.09-.11,.27-.2,.31,0,.09-.08,.12-.05,.15,.03,.09-.02,.36-.18,.82l-.24,.79-.21,.88c-.21,.88-.24,1.6-.18,2.29,.05,.63,.09,.9,.38,1.25,.17-.19,.26-.28,.26-.28l.23-.28h0Z"/>
      <path class="cls-2" d="M142.77,55.04l-.12,.84c-.09,.69-.16,1.21-.24,1.54-.18,.88-.27,1.54-.34,1.99-.02,.18-.08,.42-.09,.69l-.27,1.54-.09,.66-.29,1.72c-.05,.27-.16,.49-.36,.7-.23,.22-.34,.43-.36,.67,0,.15-.04,.42-.12,.76h-.06l.07-.48-.06-.03c-.03,.09-.05,.21-.17,.37l-.25-.23-.44,1.85h-.06l.07-.45h-.06c-.19,.58-.35,1.01-.46,1.22-.25,.58-.59,1.01-1.03,1.27,.03-.03-.09,.09-.38,.31-.27,.13-.5,.17-.72,.12-.15,0-.42,.02-.78-.06-.45-.07-.79-.21-1.04-.38-.62-.46-.85-1.02-.88-1.86-.02-.57,.07-1.32,.3-2.23,.31-1.21,.7-2.22,1.17-3.05l1.16-1.88,.48-.77c.09-.12,.17-.16,.26-.25l-.11,.27s.06,0,.09,.03l.02-.3,.11-.18,.23-.19c.05-.15,.08-.24,.11-.27,.63-.68,.95-1.03,.95-1.03,.23-.22,.41-.35,.55-.47,.03-.09,.17-.25,.2-.4l.5-2.72c0-.12,0-.24,.02-.33-.09,.03-.18,.1-.21,.13-1.16,1.13-2.19,2.4-3.09,3.84l-1.58,2.7-.43,.5c-.08,.12-.23,.19-.41,.2-.06,0-.18-.02-.33-.05l-.55-.25c-.25-.11-.95-.44-1.4-.58-.58-.22-.78-.66-.81-1.41-.02-.51,.05-1.11,.23-1.75,.13-.52,.34-1.3,.66-2.37,.08-.33,.27-.79,.52-1.4,.14-.37,.28-.64,.36-.79l.28-.61c.14-.28,.25-.49,.3-.64l.5-.98,.59-.92c.09-.09,.17-.16,.26-.16s.18,.02,.27,.11c.74,.54,1.17,.86,1.33,.94,.09,.09,.25,.14,.46,.22l.28,.2c-.08,.12-.14,.19-.2,.19-.33,.01-.44,.35-.46,.44-.37,.55-.73,1.29-1.09,2.17-.08,.15-.25,.61-.52,1.31l-.38,.98s-.03,.09,0,.18l.34-.43c-.03,.06,.2-.25,.71-.96l1.01-1.15s.09-.09,.11-.18l.86-.9c.23-.25,.58-.5,.73-.63,.2-.16,.56-.32,1.12-.52,.03-.03,.09-.03,.18-.04,.15,0,.33,.05,.48,.13l1.01,.62,.52,.31c.09,.03,.21,.05,.34,.14,.34,.14,.56,.4,.6,.85,0,.33-.03,.84-.12,1.57h.02Zm-3.39,4c-.12,.09-.14,.18-.23,.22-.17,.13-.2,.28-.07,.42-.03,.09-.17,.22-.17,.31,0,.15,0,.36-.25,.37l-.09,.09c-.02,.15-.02,.27,.04,.36,.09,.03,.1,.18,.07,.21l-.34,.43c-.1-.15-.27-.05-.3-.08-.14,.25-.31,.49-.42,.74-.02,.12-.2,.34-.16,.55,.03,.12,.07,.18,.07,.21,0,.09-.08,.24-.22,.4l-.19,.43c-.14,.37-.21,.7-.29,.97l-.36,.73c-.03,.09-.09,.12-.11,.15-.15,.1-.23,.25-.31,.52-.02,.15-.08,.36-.09,.69-.03,.12-.02,.21,0,.24,.12,.12,.07,.3,.08,.39l-.06,.03v-.18c-.09,.09-.12,.16-.12,.25v.15c0,.21,0,.36-.04,.45-.02,.15-.05,.27-.05,.36,0,.27,.14,.62,.18,.74,.1,.24,.22,.35,.37,.35,.09,0,.18-.07,.29-.19,.29-.25,.55-.62,.77-1.08,.55-1.25,.83-2.46,1.24-4.52,.02-.18,.04-.39,.12-.67l.27-1.6,.17-.97c0-.12-.02-.42,.07-.54l.03-.09c0-.09-.07-.3,.07-.39,0,0,0-.09-.03-.09-.09-.03-.09-.09,0-.18l.08-.18h-.02Zm-3.31,7.63l.02-.18v.18h-.02Zm1.04-3.31l.03,.03,.12-.09,.08-.24h-.06l-.17,.31h0Zm.99-1.64l.23-.28-.14,.31-.09-.03Zm2.37,2.97c-.14,.34-.21,.64-.18,.88,.21-.13,.29-.28,.28-.46,0-.12-.04-.27-.11-.42h0Z"/>
      <path class="cls-2" d="M146.63,61.53c-.08,.21-.17,.34-.29,.37-.21,.04-.29,.34-.28,.61-.27,.13-.47,.38-.63,.71-.11,.3-.28,.46-.52,.47-.12,0-.21,0-.27-.02-.06-.03-.12-.02-.21-.02-.39-.08-.61-.28-.63-.64,0-.36,.03-.72,.14-1.06,.15-.76,.34-1.33,.56-1.76,.08-.21,.17-.22,.41-.2,.48,.07,1.06,.32,1.71,.74,.09,.03,.15,.08,.16,.17-.02,.27-.07,.48-.16,.61v.02Zm2.9-17.52c-.11,.18-.28,.55-.53,1.13-.22,.52-.38,1.01-.48,1.43-.35,1.06-.62,1.82-.75,2.34l-.29,1.03c-.23,.94-.45,1.61-.58,2.06-.19,.64-.35,1.67-.54,3.08-.05,.21-.1,.57-.11,1.09v.03s.04,.12,.1,.3l.21,1.67-.03,.06c-.16-.11-.6,.05-.75-.03-.27-.11-.76-.24-.91-.27-.09-.03-.22-.14-.37-.32-.1-.12-.19-.26-.26-.47-.1-.21-.2-.5-.34-.95-.04-.15-.07-.27-.07-.36,0-.33,.04-.57,.06-.72l.02-.15c-.03-.09-.04-.18-.04-.33,0-.33,.06-.81,.24-1.42,.11-.3,.19-.61,.24-.91,.07-.48,.28-1.27,.36-1.63,.05-.3,.18-.76,.4-1.37,0-.03,.02-.12,.05-.12,.27-.04,.4-.53,.52-.65v.3c.09-.15,.18-.37,.26-.58,.02-.12,.08-.24,.13-.4,0-.12,.05-.24,.05-.39h-.09c.04,.15,0,.27,.04,.39l-.18-.05,.02-.36c0-.12-.04-.24-.1-.36v-.09c0-.09,.05-.24,.13-.49,.12,.08,.21,.11,.27,.05,.09-.09,.11-.21,.14-.33l.28-.61-.26,.97s.03,0,.03,.03c.03-.03,.08-.09,.11-.18,.11-.36,.3-.79,.43-1.31,.08-.15,.17-.31,.25-.4,.08-.15,.14-.27,.14-.36,0-.15,.05-.3,.13-.52l.36-.82h-.15l.08-.27c.39,0,.76,.12,1.1,.41l.58,.31c.15,.08,.22,.17,.22,.29,0,.09-.02,.15-.11,.24h-.01Zm-3.63,3.99c0,.15-.08,.33-.22,.55,0-.03,.02-.21,.07-.6,.03-.06,.06-.09,.12-.12l.04,.18h0Zm-.04-.19h0Zm1.11-3.04c-.08,.21-.22,.49-.36,.85,.08-.21,.16-.52,.24-.91l.12,.06Zm.68-1.74c-.03,.12-.14,.27-.16,.43-.03,0-.06,0-.09-.03,.09-.09,.17-.25,.25-.4Z"/>
    </g>
    <g>
      <path class="cls-2" d="M.53,43.03c-.05-.45-.09-.75-.1-.96-.02-.6,.01-1.17,.11-1.75,.08-.33,.12-.82,.2-1.15v-.06c0-.09-.04-.15-.13-.24-.09-.09-.37-.26-.5-.46,.21-.1,.41-.17,.68-.24,.15-.04,.23-.13,.26-.25,.08-.21,.16-.46,.24-.82,.18-.76,.4-1.37,.62-1.83l.24-.7,.24-.7,.44-1.1c.13-.4,.21-.67,.27-.76,.14-.34,.64-1.38,.88-2.14-.03-.03-.12,0-.12,.03-.19,.46-.4,.62-.95,1.09l-.46,.41c-.12,.09-.17,.19-.2,.28-.03,.12-.17,.28-.29,.31-.23,.13-.43,.44-.58,.56-.33,0-.67-.33-.8-.42-.16-.14-.31-.29-.44-.49-.1-.15-.13-.26-.14-.41s.02-.24,.05-.33c.11-.3,.25-.58,.42-.83,.57-.8,1.14-1.46,1.75-1.96,.15-.13,.41-.38,.55-.47,.24-.13,.58-.44,.82-.6,.35-.28,.91-.64,1.64-1.05l.62-.32c.86-.36,1.69-.52,2.5-.49,.51,.04,.94,.23,1.28,.55,.59,.55,1,.95,1.28,1.24,.53,.61,.83,1.32,.86,2.1,0,.51-.11,1-.3,1.45-.22,.52-.47,.95-.73,1.26-.12,.09-.23,.34-.25,.43-.11,.15-.28,.61-.54,.77-.23,.16-.49,.65-.6,.8-.23,.34-.43,.59-.57,.74-.26,.28-.49,.56-.69,.84-.23,.28-.43,.47-.58,.56-.12,.03-.18,.13-.2,.16,0,.03,0,.06,.03,.09l.48-.02c.9,0,1.72,.23,2.43,.78,.71,.48,1.24,1,1.56,1.56,.32,.47,.49,.91,.47,1.33,0,.15-.02,.3-.1,.39-.42,.71-.74,1.17-.88,1.35-.26,.34-.64,.66-1.1,.94-.06,.03-.2,.19-.43,.44-.32,.31-.79,.6-1.44,.84-.59,.17-1.39,.56-1.63,.66-.09,0-.26,.1-.38,.1-.33,.04-.57,.11-.71,.21-.06,.03-.18,.07-.33,.07s-.27,0-.36-.02h-.18l-1.38,.09c-.45,.02-.81,0-1.05-.05-.58-.13-.94-.32-1.17-.62-.38-.41-.57-.82-.62-1.24v.05Zm6.38-.61c1.21-.65,2.14-1.43,2.79-2.33,.4-.5,.65-.99,.72-1.5,.03-.09,.02-.18,.02-.3,0-.24-.13-.3-.52-.37-.24-.02-.63-.07-.84-.06-.15,0-.63,0-.96-.08-.03,0-.06,0-.09,.03-.15,.04-.39,.08-.69,.09-.27,0-.45,.02-.57,.05l-1.6,.48c-.12,.03-.33,.04-.41,.14-.23,.25-.65,.42-.73,.45-.15,.1-.23,.19-.29,.34-.08,.24-.13,.52-.15,.79l-.18,.82c-.02,.15-.16,.49-.19,.64,0,.15-.02,.33-.04,.57-.02,.15-.02,.33,0,.6,0,.27,.05,.54,.12,.81,.57,.07,1.19-.2,1.28-.2,.8-.21,1.6-.54,2.33-.96h0Zm-1.18-8.1c.55-.59,1.07-1.18,1.58-1.8,1.03-1.27,1.82-2.68,2.36-4.23,.11-.33,.16-.58,.15-.73,0-.12,0-.21-.04-.27-.21,.04-.36,.07-.48,.08l-.45,.02c-.3,0-.54,.05-.68,.15,0,.09,.1,.39,.02,.54l-.39,.83-.39,.8-.42,.83-.88,2.05-.25,.61c-.19,.58-.38,1-.58,1.28-.03,.06-.02,.12,.07,.21l.38-.34v-.03Z"/>
      <path class="cls-2" d="M20.04,39.69l-.47,.95c-.3,.76-.79,1.44-1.39,2,0,0-.14,.19-.43,.56-.14,.25-.31,.46-.52,.65-.43,.41-.94,.61-1.48,.63-.51,.02-1.12-.14-1.76-.44l-1.03-.38c-1.32-.67-1.65-1.44-1.62-3,.06-2.37,.81-4.59,2.13-6.96,.59-1.01,1.22-1.76,1.86-2.29,.35-.25,.65-.39,.86-.39,.18,0,.45,.1,.85,.3,.31,.2,.71,.39,1.16,.58,.55,.22,.92,.56,1.12,1.01,.14,.39-.29,1-.35,1.12-.09,.09-.32,.31-.4,.47-.53,.98-1.04,1.72-1.56,2.25-.37,.4-.75,.84-1.09,1.33-.31,.46-.51,.77-.6,.86-.12,.12-.26,.22-.41,.29-.67,.54-.85,1.32-.9,2.32,0,.27,0,1.17,.25,1.76,.42-.11,.86-.36,1.29-.77,.75-.72,1.7-1.78,2.88-3.23l1.06-1.33c.2-.16,.53-.2,.4-.56,0-.03,.15-.13,.24,0,.03,.06,.06,.09,.09,.09s.14-.19,.23-.16,.07,.24,.1,.27c-.09,.09-.02,.24-.05,.33,.09,0,.18,.08,.3,.11-.11,.3-.36,.85-.78,1.65l.02-.02Zm-4.87-2.51c1.04-1.15,1.68-2.44,2.42-4.27-.51,.02-.89,.3-1.2,.86,0,0-.17,.28-.51,.83-.59,.95-.87,1.44-.85,2.19l.04,.3c.03,.09-.02,.12-.02,.12,.09,.09,.09-.03,.12-.03Zm5.48,.45s-.06,0-.09-.03l.09-.03v.06Z"/>
      <path class="cls-2" d="M27.1,35.94c-.08,.15-.17,.28-.22,.43,0,.03-.08,.21,0,.36,.09,.09,.1,.24,0,.39-.11,.27-.15,.88-.35,1.15v.09c0,.21-.19,.49-.21,.61-.02,.24-.25,.55-.33,.67l-.67,1.32c-.14,.19-.2,.37-.19,.55,0,.09-.05,.18-.14,.28-.14,.22-.5,.95-.76,1.23-.52,.65-1.16,1.01-1.91,1-.69,0-1.51-.21-2.45-.57-.61-.28-.96-.68-1.07-1.25-.08-.48-.13-.96-.14-1.41-.02-.57,0-1.08,.03-1.59,.1-.63,.22-1.27,.38-1.91,.26-1.06,.5-1.91,.74-2.52,.22-.52,.41-1.01,.61-1.4,.11-.15,.48-.89,.85-1.29,.2-.16,.49-.47,.64-.59,.44-.26,.77-.39,1.01-.4,.12,0,.27,.02,.42,.07,.76,.3,1.34,.55,1.68,.77,.19,.14,.31,.23,.34,.29,.1,.15,.16,.26,.17,.38,0,.09-.05,.18-.14,.25l-.2,.25c-.23,.4-.58,.62-1.02,.67-.27,0-.36-.05-.37-.29l.05-.93,.02-.18h-.09c-.12,0-.21,.07-.26,.16-.2,.34-.33,.67-.44,1.01-.03,.03-.03,.12-.05,.15-.35,.16-.48,.8-.59,.95-.03,.03-.05,.15-.05,.3-.02,.36-.24,.88-.32,1.03-.03,.12-.22,.55-.24,.82-.02,.21-.13,.46-.16,.58-.02,.15-.13,.4-.15,.73,0,.06-.02,.18-.05,.33-.08,.21-.11,.36-.07,.51,.03,.06,.04,.15,.04,.24,0,.15-.02,.36-.1,.6-.11,.36-.09,.87-.08,1.08v.63c0,.21,.05,.54,.09,.93l.1,.3c.27-.1,.4-.41,.43-.5,.82-1.32,1.49-2.49,2.03-3.5l.95-1.78c.28-.58,.64-1.26,1.06-2.02l.93-1.6c.06-.12,.14-.16,.27-.1,.04,.12-.05,.24-.05,.27s-.12,.12-.02,.15c.03,.03,.06,.09,.07,.15,0,.03-.06,.12-.14,.28-.14,.22-.3,.64-.42,.86l-.06,.12c0,.06,.07,.15,.16,.26,.06-.03,.09-.09,.08-.18,0-.22,.1-.36,.31-.43,.32-.1,.12,.06,.15,.05,.03,.03,.06,.06,.09,.06-.02,.15-.08,.24-.11,.27-.12,.12-.15-.02-.18-.02-.08,.15-.07,.57-.18,.73h.03s.17-.19,.32-.22c0,.15-.02,.27-.08,.36h-.01Zm.07-.44h.03s.03,.03,0,.03c0,0-.03,0-.03-.03Zm.08-.18l.03,.03-.03,.06-.06-.06,.06-.03Z"/>
      <path class="cls-2" d="M25.85,41.72c0-.33,0-.81,.06-1.44l.03-.63,.13-1.39c.19-1.39,.5-2.54,.95-3.46,.2-.34,.29-.91,.37-1.4,.07-.42,.21-.85,.46-1.31,.26-.4,.72-.66,1.12-.58,.93,.05,1.54,.15,2.03,.52,.16,.14,.34,.2,.58,.22,.33,.11,.52,.31,.75,.75,.38,.5,.67,.9,.83,1.2,.09,.12,.19,.29,.32,.53l.42,.67,2.34-.9c.15,.08,.22,.17,.22,.32,0,.03-.02,.15-.08,.33l-.59,.92c-.03,.09-.09,.12-.24,.13-.24,.13-.65,.3-1.27,.53-.21,.1-.32,.25-.34,.43-.08,.33-.23,.94-.25,1.27-.07,.39-.08,1.05-.43,1.37-.09,.03-.11,.24-.11,.27-.14,.34-.31,.55-.46,.65-.29,.34-.48,.68-.62,1.01-.47,.95-1.08,1.57-1.88,1.93-.26,.13-.81,.09-.93,.1-.87,.09-1.74-.08-2.6-.56-.52-.22-.81-.87-.81-1.5v.02Zm3.75-4.68l-1.03-.29c-.08,.36-.4,1.25-.34,1.97l-.02,.27c-.08,.39-.12,.85-.16,1.39,0,.51,.04,1.08,.12,1.71,0,.09,.07,.27,.17,.56,1.52-1.77,2.48-3.34,2.92-5.13l-1.67-.48h.01Zm1.9-1.24c0-.21-.05-.45-.09-.78-.16-.92-.46-1.69-.93-2.37-.32,.28-.91,.63-.95,1.15v.12c-.13,.34-.21,.64-.2,.94,.02,.45,.22,.92,.56,1.36,.1,.18,.22,.23,.37,.2,.27-.04,.63-.11,1.07-.25,.15-.04,.17-.22,.17-.37Z"/>
      <path class="cls-2" d="M44.9,42.9c-.04-.18-.05-.45-.06-.84-.04-1.08,.12-2.26,.46-3.53l.45-1.64,.53-1.79,.42-1.46,.16-.64s-.03-.03-.06-.06c0,0-.09,.09-.23,.25-.26,.28-.77,1.05-1.53,2.28-.76,1.2-1.21,2.06-1.37,2.54-.5,1.19-.87,2.29-1.17,3.26-.24,0-.72-.06-1-.14-.21-.02-.43-.13-.55-.16-.24-.02-.31-.17-.35-.44l-.15-.86c-.05-.63-.04-1.11-.06-1.44-.04-.36-.08-.63-.09-.81,0-.03-.03-.03-.09-.03-.44,.35-.95,1.12-1.53,2.37-.55,1.22-.88,2.23-.97,2.98,0,.06-.06,.09-.15,.1-.15,0-.24-.05-.33-.05l-.05,.24c-.05,.27-.2,.37-.41,.32-.97-.14-1.61-.42-1.92-.86-.03-.09-.07-.24-.08-.45-.04-.9,.09-2.37,.4-4.4,.31-2.02,.67-3.63,1.1-4.82l.33-.91,.24-.67s.18-.04,.21,0c.25,.14,1.19,.55,1.72,.98,.15,.11,.22,.2,.22,.26,0,0-.03,.09-.11,.3-.17,.31-.3,.64-.41,1.01-.27,.7-.51,1.64-.73,2.88l-.02,.24c.23-.25,.4-.53,.66-.78,.46-.38,.82-.63,1.05-.79,.12-.09,.24-.13,.36-.13,.09,0,.18,.02,.3,.08,.33,.14,.88,.36,1.53,.69l.22,.14,.45-.89c.08-.27,.25-.61,.5-1.04l.42-.74c.54-.83,1.05-1.54,1.48-2.07,.66-.66,1.34-1.13,2.02-1.4,.21-.04,.36-.07,.45-.08,.27,0,.51,.07,.76,.24,.65,.43,1.14,.74,1.42,1,.25,.26,.35,.47,.27,.8-.2,1.15-.43,2.12-.67,2.88-.35,1.03-.7,2.19-1.04,3.49l-.28,1.21c-.02,.15-.13,.37-.16,.64l-.16,1.18-.14,.97c-.02,.27-.04,.51-.04,.66,.01,.33,.09,.72,.19,1.1,.04,.15,.17,.53,.33,.77,.22,.38,.29,.44,.73,.39l.18-.07c.15,0,.24,.02,.37,.17l-.05,.27c-.15,.1-.3,.13-.51,.14-.15,0-.33-.02-.51-.07-.64-.16-1.12-.35-1.46-.54-.89-.57-1.4-1.33-1.5-2.25v.02Z"/>
      <path class="cls-2" d="M57.18,38.26l-.47,.95c-.3,.76-.79,1.44-1.39,2.01,0,0-.14,.19-.43,.56-.14,.25-.31,.46-.51,.65-.44,.41-.94,.61-1.48,.63-.51,.02-1.12-.14-1.76-.44l-1.03-.38c-1.32-.67-1.65-1.44-1.62-3,.06-2.37,.81-4.59,2.13-6.96,.59-1.01,1.22-1.76,1.86-2.29,.35-.25,.65-.39,.86-.39,.18,0,.45,.1,.85,.3,.31,.2,.7,.39,1.16,.59,.55,.22,.92,.56,1.12,1.01,.14,.39-.29,1-.35,1.12-.09,.09-.32,.31-.4,.47-.53,.98-1.04,1.72-1.56,2.25-.38,.4-.75,.84-1.09,1.33-.31,.46-.51,.77-.6,.86-.12,.12-.26,.22-.41,.29-.67,.54-.85,1.32-.9,2.32,0,.27,.01,1.17,.25,1.76,.42-.11,.86-.36,1.29-.77,.75-.72,1.7-1.78,2.88-3.23l1.06-1.33c.2-.16,.53-.2,.4-.56,0-.03,.15-.13,.24,0,.03,.06,.06,.09,.09,.09s.14-.19,.23-.16c.09,.03,.07,.24,.1,.27-.09,.09-.02,.24-.05,.33,.09,0,.18,.08,.3,.11-.11,.3-.36,.85-.78,1.65v-.04Zm-4.86-2.51c1.04-1.15,1.68-2.44,2.42-4.27-.51,.02-.89,.31-1.2,.86,0,0-.17,.28-.51,.83-.59,.95-.88,1.44-.85,2.19l.04,.3c.03,.09-.02,.12-.02,.12,.09,.09,.09-.03,.12-.03Zm5.48,.45s-.06,0-.09-.03l.09-.03v.06Z"/>
      <path class="cls-2" d="M69.89,41.82c-.2-.5-.34-.92-.41-1.22,0-.15-.04-.27-.07-.39-.12,.09-.14,.25-.26,.34l-.32,.25s-.24,.13-.26,.22c-.26,.34-.58,.5-.97,.52-.27,0-.69-.03-1.21-.13l-.7-.09c-.48-.1-.82-.36-.99-.8-.2-.44-.31-1.07-.34-1.85,0-.72,.12-1.51,.36-2.39,.57-1.67,1-2.77,1.34-3.32,.42-.65,.85-1.17,1.26-1.52,.47-.35,.94-.52,1.42-.54,.27,0,.51,0,.75,.09,.52,.19,.88,.33,1.03,.35,.08-.3,.16-.64,.17-1.03l.06-.78c.45,.07,.75,.12,.94,.2,.33,.11,.64,.22,.85,.33,.12,.02,.4,.28,.55,.31,.09-.03,.13,.27,.13,.3,0,.12,0,.54-.14,1.03-.34,1.18-.68,2.67-1,4.45-.29,1.75-.42,3.23-.37,4.43,.03,.69,.11,1.23,.27,1.58,.07,.33,.17,.59,.33,.8,.09,.15,.3,.68,.67,.9,.15,.14,.25,.2,.34,.2,.06,.06,.09,.09,.12,.08,.03,.03,0,.12,0,.15l-.33,.04c-1.32,.08-1.99-.28-2.73-1.46-.13-.21-.29-.56-.52-1.06h.03Zm-2.77-1.74c.73-1.29,1.32-2.42,1.73-3.37l.27-.7,.9-2.47c.24-.67,.37-1.25,.32-1.69-.18-.05-.3-.11-.37-.17-.09-.09-.24-.11-.45-.1-.15,.04-.35,.22-.38,.25-.55,.47-.93,.85-1.16,1.13-.11,.15-.46,.5-.42,.86l-.03,.03c-.15,.04-.2,.22-.23,.31-.09,.09-.11,.27-.2,.31,0,.09-.08,.12-.05,.15,.03,.09-.02,.36-.18,.82l-.24,.79-.21,.88c-.21,.88-.24,1.6-.18,2.29,.05,.63,.09,.9,.38,1.25,.17-.19,.26-.28,.26-.28l.23-.28h0Z"/>
      <path class="cls-2" d="M83.93,39.32c-.02,.15-.05,.21-.05,.21,.03,.09-.08,.18-.08,.21,0,.12-.02,.18-.05,.21-.09,.09-.08,.39-.22,.49l-.11,.19c-.11,.27-.17,.31-.44,.32-.51,.02-1.08-.05-1.66-.18-.09-.03-.24-.05-.46-.13-.51-.13-.83-.51-.94-1.13-.07-.33-.12-.66-.13-.99-.02-.42,0-.84,.04-1.29,.08-.36,.07-.66,.06-.81-.49,.59-.83,1.02-1.03,1.36l-.71,.99c-.23,.28-.37,.52-.48,.74-.08,.15-.25,.46-.56,.92-.2,.22-.38,.32-.59,.26-.82-.12-1.51-.21-2.05-.25-.39-.04-.61-.28-.66-.72-.05-.51-.04-.9-.05-1.17,0-.09-.13-.29-.05-.42,.08-.15,0-.69,.2-.94,.08-.12,.05-.27-.07-.3-.06-.06-.07-.18-.04-.36l.25-1.39s-.03-.06,0-.09c.23-.22,.15-.7,.18-.85l.18-.76,.24-.88,.02-.24c.08-.21,.17-.31,.29-.34-.03,.03-.17,.19-.05,.3l.05-.3c-.09-.06-.13-.14-.1-.24,.14-.34,.22-.55,.24-.7,.16-.46,.29-.88,.4-1.31,.15,0,.27,0,.33,.02,.94,.23,1.64,.45,2.09,.58,.09,.03,.19,.17,.32,.38l-.27,.07c-.31,.58-.63,1.65-.99,3.19-.36,1.54-.53,2.51-.49,2.96,.12-.09,.23-.28,.31-.37,.15-.13,.43-.65,.69-.81,.09-.03,.08-.24,.17-.28,.14-.22,.31-.46,.51-.68l.83-.99c.26-.22,.53-.35,.77-.36,.33,0,.72,.06,1.18,.22,.15,.02,.61,.19,.88,.21,.15,.02,.28,.11,.34,.26h.03v.09s-.03,.06-.03,.09c.07,.24,.11,.48,.12,.75v.6l.02,.69v.03c-.02,.15-.08,.36-.1,.6-.02,.33-.07,.6-.15,.76-.03,.09-.05,.15-.02,.15,.06,.06,.1,.15,.1,.24s-.02,.18-.05,.3c-.05,.18-.08,.33-.07,.48,0,.09,.04,.21,.07,.33,.04,.15,.08,.57,.33,.68,.2-.16,.47-.29,.79-.45,.09-.09,.35-.25,.54-.08l.2-.19-.02,.12h0Z"/>
      <path class="cls-2" d="M94.35,41.26c-.09,0-.24,0-.36-.02-.42-.1-.82-.24-1.16-.41-.52-.25-.77-.63-1.16-1.25-.18-.65-.32-1.37-.38-2.18,.01-.39,.05-.96,.14-1.78l.27-1.54c.15-.76,.27-1.45,.37-2.12,.03-.09,.05-.33,.09-.75,.03-.09,.02-.18,.02-.27,.12,.03,.33,.02,.42,.04,.73,.3,1.29,.76,2.01,1.48,.13,.17,.19,.35,.17,.56l-.23,.91c-.08,.39-.16,.64-.18,.76-.08,.33-.18,.82-.36,1.46-.1,.39-.18,.85-.25,1.39-.03,.81-.03,1.5,.02,2.13-.02,.21-.04,.36-.04,.45s.04,.18,.07,.24c.09,.09,.23,.53,.5,.55,.03,0,.13,.24,.16,.32h-.12v.03Zm-1.26-12.47c-.05-.42,.02-1.02,.2-1.78,.1-.45,.2-1.03,.33-1.69l.17-.91c.02-.12,.01-.42,.04-.57,.02-.21,.14-.28,.32-.19,.25,.2,.46,.31,.62,.43l1.13,1.19c.28,.35,.28,1.04,.29,1.19-.35,.25-.34,.64-.38,.95-.08,.12-.25,.49-.49,.65-.12,.09-.2,.25-.22,.43-.02,.39-.27,.91-.29,1.06-.11,.24-.09,.72-.17,.97-.03,.09-.11,.18-.14,.27-.15-.11-.49-.28-.65-.42-.4-.38-.67-.91-.75-1.56v-.02Z"/>
      <path class="cls-2" d="M106.28,38.46c-.02,.15-.05,.21-.05,.21,.03,.09-.08,.18-.08,.21,0,.12-.02,.18-.05,.21-.09,.09-.08,.39-.22,.49l-.11,.18c-.11,.27-.17,.31-.44,.32-.51,.02-1.08-.05-1.66-.18-.09-.03-.24-.05-.46-.13-.51-.13-.83-.51-.94-1.13-.07-.33-.12-.66-.13-.99-.02-.42,0-.84,.04-1.29,.08-.36,.07-.66,.06-.81-.49,.59-.83,1.02-1.03,1.36l-.71,.99c-.23,.28-.37,.52-.48,.74-.08,.15-.25,.46-.56,.92-.2,.22-.38,.31-.59,.26-.82-.12-1.51-.21-2.05-.25-.39-.04-.61-.28-.66-.73-.05-.51-.04-.9-.05-1.17,0-.09-.13-.29-.05-.42,.08-.15,0-.69,.2-.94,.08-.12,.05-.27-.07-.3-.06-.06-.07-.18-.04-.36l.25-1.39s-.03-.06,0-.09c.23-.22,.15-.7,.18-.85l.18-.76,.24-.88,.02-.24c.08-.21,.17-.31,.29-.34-.03,.03-.17,.19-.05,.3l.05-.3c-.09-.06-.12-.14-.1-.24,.14-.34,.22-.55,.24-.7,.16-.46,.3-.88,.4-1.31,.15,0,.27,0,.33,.02,.94,.23,1.64,.45,2.09,.58,.09,.03,.19,.17,.32,.38l-.27,.07c-.31,.58-.63,1.65-.99,3.19-.36,1.54-.53,2.51-.49,2.96,.12-.09,.23-.28,.32-.37,.15-.13,.43-.65,.69-.81,.09-.03,.08-.24,.17-.28,.14-.22,.31-.46,.51-.68l.83-.99c.26-.22,.53-.35,.77-.36,.33,0,.72,.06,1.18,.22,.15,.02,.61,.19,.88,.21,.15,.02,.28,.11,.34,.26h.03v.09s-.03,.06-.03,.09c.07,.24,.11,.48,.12,.75v.6l.02,.69v.03c-.02,.15-.08,.36-.1,.6-.02,.33-.07,.6-.15,.76-.03,.09-.05,.15-.02,.15,.06,.06,.1,.15,.1,.24s-.02,.18-.05,.3c-.05,.18-.08,.33-.07,.48,0,.09,.04,.21,.07,.33,.04,.15,.08,.57,.33,.68,.2-.16,.47-.29,.79-.45,.09-.09,.35-.25,.54-.08l.2-.19-.02,.12v.02Z"/>
      <path class="cls-2" d="M113.53,32.59c-.08,.15-.17,.28-.22,.43,0,.03-.08,.21,0,.36,.09,.09,.1,.24,0,.39-.11,.27-.15,.88-.34,1.15v.09c0,.21-.19,.49-.21,.61-.02,.24-.25,.55-.33,.67l-.67,1.32c-.14,.19-.2,.37-.19,.55,0,.09-.05,.18-.14,.27-.14,.22-.5,.95-.76,1.23-.51,.65-1.16,1.01-1.91,1-.69,0-1.51-.21-2.45-.57-.61-.28-.96-.68-1.07-1.25-.08-.48-.13-.96-.14-1.41-.02-.57-.01-1.08,.03-1.59,.1-.63,.22-1.27,.38-1.91,.26-1.06,.5-1.91,.74-2.52,.22-.52,.41-1.01,.6-1.4,.11-.16,.48-.89,.85-1.29,.2-.16,.49-.47,.64-.59,.44-.26,.77-.39,1-.4,.12,0,.27,.02,.42,.07,.76,.3,1.34,.55,1.68,.78,.18,.14,.31,.23,.34,.29,.1,.15,.16,.26,.17,.38,0,.09-.05,.18-.14,.25l-.2,.25c-.22,.4-.58,.62-1.02,.67-.27,0-.36-.05-.37-.29l.05-.93,.02-.18h-.09c-.12,0-.21,.07-.26,.16-.2,.34-.33,.67-.44,1.01-.03,.03-.03,.12-.05,.15-.35,.16-.48,.8-.59,.95-.03,.03-.05,.15-.05,.3-.02,.36-.24,.88-.32,1.03-.03,.12-.22,.55-.24,.82-.02,.21-.13,.46-.16,.58-.02,.15-.13,.4-.15,.73,0,.06-.02,.18-.05,.33-.08,.21-.11,.36-.07,.51,.03,.06,.04,.15,.04,.24,0,.15-.02,.36-.1,.6-.11,.36-.09,.87-.08,1.08v.63c0,.21,.05,.54,.09,.93l.1,.3c.27-.1,.4-.41,.43-.5,.82-1.32,1.5-2.49,2.03-3.5l.95-1.78c.28-.58,.64-1.26,1.06-2.02l.93-1.6c.06-.12,.14-.16,.27-.1,.04,.12-.05,.24-.05,.27s-.12,.12-.02,.15c.03,.03,.06,.09,.07,.15,0,.03-.06,.12-.14,.28-.14,.22-.3,.64-.42,.86l-.06,.12c0,.06,.07,.15,.16,.26,.06-.03,.09-.09,.08-.18,0-.22,.1-.36,.31-.43,.32-.1,.12,.06,.15,.05,.03,.03,.06,.06,.09,.06-.02,.15-.08,.24-.11,.27-.12,.12-.15-.02-.18-.02-.08,.15-.07,.57-.18,.73h.03s.17-.19,.32-.22c0,.15-.02,.27-.08,.36h0Zm.07-.44h.03s.03,.03,0,.03c0,0-.03,0-.03-.03Zm.08-.18l.03,.03-.03,.06s-.03-.03-.06-.06l.06-.03Z"/>
      <path class="cls-2" d="M113.5,44.24c0-.12-.04-.21-.1-.24-.03,0-.21-.02-.13-.15,.03-.03,.06-.12,.05-.21,0-.12-.16-.35-.26-.56-.04-.12-.13-.32-.14-.44,0-.12,.05-.21,.14-.31,.12-.12,.02-.3,0-.39v-.06c0-.15-.21-.02-.24-.05-.04-.21-.14-.54-.15-.75,0-.09,.02-.21,.04-.36,.14-.28,.22-.58,.21-.94-.02-.39-.08-.66-.12-.87v-.12c0-.12,.02-.27,.04-.48l.02-.3c0-.12-.07-.21-.16-.29-.09-.03-.13-.2-.04-.24,.26-.34,.14-1.12,.22-1.36v-.21c-.02-.21,0-.36,.06-.45,.43-3.59,.75-5.43,.9-5.47,.06-.03,.08-.12,.08-.21-.07-.18-.1-.27-.1-.3,0-.09,.08-.18,.23-.25,0-.03-.1-.21-.07-.36,.08-.27,.35-.91,.25-1.39,0-.03,.06-.03,.06-.06,.08-.15,.18-.67,.15-.76,0-.03,.03-.12,.05-.24,.25-.64,.41-1.13,.45-1.49,.22-.58,.4-1.16,.56-1.73l.35-.94,.25-.64c.02-.18,.08-.3,.17-.34,.25-.46,.44-.92,.57-1.43l.42-.71c.59-1.01,1.13-1.82,1.56-2.46,.34-.37,.58-.62,.72-.72,.09-.09,.23-.16,.44-.17,.09,0,.21,.02,.36,.05,.61,.19,1.16,.47,1.65,.78,.31,.23,.47,.49,.48,.76,0,.21-.07,.42-.21,.7-.23,.25-.25,.46-.24,.82-.07,.48-.15,.79-.5,.92-.03,.03-.09,.06-.11,.15-.02,.36-.5,.98-.58,1.22,0,.03-.11,.21-.08,.33-.1,.51-.52,1.22-.66,1.56-.02,.15-.17,.28-.41,.32-.29,1.03-.62,1.77-1.03,2.17-.09,.09-.11,.15-.11,.21-.02,.24-.28,.52-.37,.65-.28,.4-.45,.74-.53,1.01-.13,.49-.56,1.1-.64,1.26-.03,.09-.14,.25-.14,.37,0,.57-.37,1.28-.45,1.49-.08,.21-.16,.49-.21,.79l-.21,.85-.21,1.48-.46,2.12c0,.63-.02,1.11,0,1.41v.69l.04,1.92c.02,.42,.03,.72,.07,.93,.09,1.47,.18,2.3,.49,3.25,.14,.62,.33,.77,1.03,.95,.09,.06,.16,.17,.22,.35l-.06,.09c-.14,.22-.41,.2-.5,.23-.36,.04-.63,.08-.81,.09-.18,0-.51,0-.99-.02-.72,0-1.25-.61-1.31-1.33v-.12h0Zm1.45-6.69c-.03,.09-.2,.28-.19,.43,0,.09,.04,.15,.13,.21,.12-.06,.17-.16,.17-.25,0-.12-.1-.24-.11-.39Zm.08-1.17c.05-.15,.05-.3-.02-.39-.12,.12-.11,.24,.02,.39Zm-.05,4.17s-.03,.12,.07,.12c.03-.03,.03-.09,.02-.24-.06,.06-.09,.09-.08,.12h-.01Z"/>
      <path class="cls-2" d="M124.95,41.49c-.46-.34-.76-.9-.94-1.67-.21-.74-.33-1.52-.36-2.3,0-.36-.02-.63,0-.81v-.18c-.04-.06-.04-.15-.05-.24,0-.15,.02-.3,.11-.39-.09,.03-.15,.04-.18,.07l-.65,1.17s-.02,.12-.02,.27v.09c-.14,.22-.25,.4-.33,.58-.14,.28-.28,.49-.42,.65-.32,.28-.56,.32-1.16,.35-.57,0-1.3-.13-1.93-.32-.52-.19-.83-.54-.97-1.04-.11-.57-.16-.98-.17-1.25,0-.15,0-.42,.03-.78,.06-.81,.23-1.81,.46-2.93l.21-.85c.12-.64,.28-1.21,.41-1.7,.08-.27,.25-.64,.47-1.13,.02-.15,.23-.34,.31-.46,.33,.14,1.4,.52,1.93,.98,.19,.14,.28,.29,.29,.47,0,.12-.02,.24-.08,.36-.02,.24-.13,.4-.16,.52s.1,.18,.13,.21c-.05,.24-.13,.43-.22,.55l-.12-.12c0,.15-.19,.58-.15,.82l.2-.4-.17,.91-.13,.64c-.03,.15-.14,.37-.16,.52l-.09-.09c-.23,.37-.33,.88-.34,1.33v.15c0,.15-.04,.27-.13,.37-.03,.03-.06,.06-.05,.15l.09,.78c.21-.1,.35-.25,.46-.47,.7-1.2,1.29-2.24,1.83-3.07,.25-.43,.71-1.11,1.36-2.03l.48-.68c.17-.28,.37-.44,.58-.44,.09,0,.21,.02,.42,.1l1.12,.35c.12,.09,.31,.29,.46,.37,0,.03-.05,.24-.25,.37-.09,.09-.14,.34-.1,.48v.15c0,.21-.04,.39-.18,.61l-.04-.36c-.09,.19-.09,.32,.02,.39l-.02,.18c-.03,.09,0,.33-.23,.31-.03,.03-.26,.22-.02,.33l.03,.06-.23,.94c-.06,.03-.09,.06-.09,.12,.03,.03,.03,.09,.04,.18,0,.24-.18,.64-.21,.85,0,.09-.02,.21-.08,.33,0-.03-.04-.18,0-.21l-.06,.06s-.05,.39-.14,1.03c-.02,.12-.02,.3,0,.54,0,.03,.07,.21-.02,.3-.09,.09-.11,.24-.11,.39l.05,.42c0,.09,.04,.18,0,.3-.03,.15-.13,.43,0,.66,.03,0,.03,.03,0,.03-.08,.12-.14,.28-.13,.49,0,.21,.24,.83,.16,1.1,0,.06,.07,.15,.16,.29,.03,.09,.1,.24,.22,.38-.15,.07-.3,.1-.45,.11-.24,0-.48-.07-.7-.21v-.03Z"/>
      <path class="cls-2" d="M125.47,42.46c-.04-.27-.08-.48-.08-.6,0-.36,.06-.72,.2-1.12,.35-.94,1.24-2.03,1.53-2.4,.29-.37,.66-.78,1.15-1.25l.63-.66c.09-.09,.69-.69,1.2-.92l.17-.22c-.37-.35-.56-.52-.56-.52-.93-.65-1.55-1.29-1.88-1.91-.16-.26-.23-.59-.25-.92,0-.33,.07-.63,.21-.91,.56-1.01,1.25-1.79,2.04-2.3,.31-.49,1.08-.85,1.4-1.07,.44-.35,.94-.67,1.5-.9,.24-.04,.42-.08,.51-.08,.45-.02,.81,.12,1.12,.38l.37,.2c.15,.08,.31,.2,.46,.4,.22,.2,.32,.44,.33,.71,0,.33-.16,.64-.48,.89-.11,.12-.22,.37-.34,.46-.48-.07-.79-.21-1.14-.68,.02-.24,.35-.88,.37-1.25-.12,.03-.44,.26-.68,.24-.06-.03-.12,0-.15,.1-.43,.53-1.19,.98-1.34,1.07-.26,.19-.91,.67-1.13,1.09l-.09,.12c-.04,.51-.56,1.01-.73,1.26-.2,.16-.32,.31-.19,.52,.03,.03,.03,.09,.04,.15,0,.09-.02,.24-.04,.39,0,.24,.04,.33,.29,.44-.03,.09-.17,.31-.04,.45,.39,.71,.55,.94,.92,1.17l.67-.57,1.58-1.2,.79-.6c.29-.25,.58-.44,.85-.57,.12-.03,.29-.25,.38-.28l.67-.48,.56-.41,.58-.38c.35-.22,.62-.38,.76-.54,.26-.25,.79-.63,1.05-.91,.09,0,.09,.09,.09,.12l.12-.03c-.15,1.48-.59,2.66-1.3,3.56-.09,.09-.35,.25-.43,.41-.11,.18-.29,.34-.52,.44-.21,.1-.38,.22-.58,.44-.29,.31-.73,.66-1.28,1.04l-.56,.41c-.09,.03-.12,.06-.15,.1-.15,.04-.63,.08-.77,.36-.08,.21-.46,.5-.55,.62,.1,.27,.35,.5,.57,.64,.25,.32,.78,.75,1,1.1,.16,.2,.23,.47,.21,.86-.13,.37-.21,.82-.5,1.01-.03,.03-.06,.06-.06,.09-.13,.4-.57,.86-.77,1.14-.14,.22-.37,.49-.72,.84-.26,.22-.43,.41-.55,.56-.03,.03-.12,.12-.2,.28-.11,.15-.26,.34-.47,.35l-.17,.16c-.34,.4-.81,.66-1.38,.77-.38,.07-.39,.08-.03,.03-.27,.1-.51,.14-.65,.15-.33,0-.79-.09-1.39-.31-.52-.13-.97-.35-1.38-.64-.46-.25-.74-.57-.79-.9h0Zm5.49-1.73c.58-.65,.94-1.39,1.08-2.2,.05-.27,.07-.51,.06-.72,0-.27-.05-.48-.15-.65-.24,.1-.75,.69-1.14,.73-.03,0-.06,.03-.09,.06-.29,.31-.9,.79-1.06,1.24-.03,.09-.05,.15-.14,.19-.44,.17-.81,.75-.9,.85-.17,.34-.36,.67-.59,1.01,0,.03-.02,.18-.14,.16-.15-.02-.17,.16-.17,.19-.08,.24-.21,.64-.34,1.15-.03,.03-.03,.09-.02,.15,0,.21,.19,.29,.43,.25,.03,0,.12-.03,.24-.07,1.09-.43,2.08-1.22,2.94-2.33h-.01Z"/>
      <path class="cls-2" d="M140.61,39.47c-.09,0-.24,0-.36-.02-.42-.1-.82-.24-1.16-.41-.52-.25-.78-.63-1.16-1.25-.18-.65-.32-1.37-.38-2.18,0-.39,.05-.96,.14-1.78l.27-1.54c.15-.76,.27-1.45,.37-2.12,.03-.09,.05-.33,.09-.75,.03-.09,.02-.18,.02-.27,.12,.03,.33,.02,.42,.04,.73,.3,1.29,.76,2.01,1.48,.13,.17,.19,.35,.17,.56l-.23,.91c-.08,.39-.16,.64-.18,.76-.08,.33-.18,.82-.36,1.46-.1,.39-.18,.85-.25,1.39-.03,.81-.03,1.5,.02,2.13-.02,.21-.04,.36-.04,.45s.04,.18,.07,.24c.09,.09,.23,.53,.5,.55,.03,0,.13,.24,.16,.32h-.12v.03Zm-1.26-12.47c-.05-.42,.02-1.02,.2-1.78,.1-.45,.2-1.03,.33-1.69l.17-.91c.02-.12,0-.42,.04-.57,.02-.21,.14-.28,.32-.19,.25,.2,.46,.31,.62,.43l1.13,1.19c.28,.35,.28,1.04,.29,1.19-.35,.25-.34,.64-.38,.95-.08,.12-.25,.49-.49,.65-.12,.09-.2,.25-.22,.43-.02,.39-.27,.91-.29,1.06-.11,.24-.09,.72-.17,.97-.03,.09-.11,.18-.14,.27-.15-.11-.49-.28-.65-.42-.4-.38-.67-.91-.75-1.56v-.02Z"/>
      <path class="cls-2" d="M141.99,37.23c0-.33,0-.81,.06-1.44l.04-.63,.13-1.39c.19-1.39,.5-2.54,.95-3.46,.2-.34,.29-.91,.37-1.4,.07-.42,.21-.85,.46-1.31,.25-.4,.72-.66,1.12-.58,.93,.05,1.54,.15,2.03,.52,.16,.14,.34,.2,.58,.22,.33,.11,.52,.31,.75,.75,.38,.5,.67,.9,.83,1.2,.09,.12,.19,.29,.32,.53l.42,.67,2.34-.9c.15,.08,.22,.17,.22,.32,0,.03-.02,.15-.08,.33l-.59,.92c-.03,.09-.09,.12-.24,.13-.24,.13-.65,.3-1.27,.53-.21,.1-.32,.25-.34,.43-.08,.33-.23,.94-.25,1.27-.07,.39-.08,1.05-.43,1.37-.09,.03-.11,.24-.11,.27-.14,.34-.31,.55-.46,.65-.29,.34-.48,.68-.62,1.01-.47,.95-1.08,1.57-1.88,1.93-.27,.13-.81,.09-.93,.1-.87,.09-1.74-.08-2.6-.56-.52-.22-.81-.87-.81-1.5v.02Zm3.74-4.68l-1.03-.29c-.08,.36-.4,1.25-.34,1.97l-.02,.27c-.07,.39-.12,.85-.16,1.39,0,.51,.04,1.08,.12,1.71,0,.09,.07,.27,.17,.56,1.52-1.77,2.48-3.34,2.92-5.13l-1.67-.48h.01Zm1.9-1.24c0-.21-.05-.45-.09-.78-.16-.92-.46-1.69-.93-2.37-.32,.28-.91,.63-.95,1.15v.12c-.13,.34-.21,.64-.2,.94,.02,.45,.21,.92,.56,1.36,.1,.18,.22,.23,.37,.2,.27-.04,.62-.11,1.07-.25,.15-.04,.17-.22,.17-.37h0Z"/>
      <path class="cls-2" d="M161.11,36.34c-.02,.15-.05,.21-.05,.21,.03,.09-.08,.18-.08,.21,0,.12-.02,.18-.05,.21-.09,.09-.08,.39-.22,.49l-.11,.19c-.11,.27-.17,.31-.44,.32-.51,.02-1.08-.05-1.66-.18-.09-.03-.24-.05-.46-.13-.52-.13-.83-.51-.94-1.13-.07-.33-.12-.66-.13-.99-.02-.42,0-.84,.04-1.29,.08-.36,.07-.66,.06-.81-.49,.59-.83,1.02-1.03,1.36l-.71,.99c-.23,.28-.37,.52-.48,.74-.08,.15-.25,.46-.56,.92-.2,.22-.38,.31-.59,.26-.81-.12-1.51-.21-2.05-.25-.39-.04-.61-.28-.66-.72-.05-.51-.04-.9-.05-1.17,0-.09-.13-.29-.05-.42,.08-.15,0-.69,.2-.94,.08-.12,.05-.27-.07-.3-.06-.06-.07-.18-.04-.36l.25-1.39s-.03-.06,0-.09c.23-.22,.15-.7,.18-.85l.18-.76,.24-.88,.02-.24c.08-.21,.17-.31,.29-.34-.03,.03-.17,.19-.05,.3l.05-.3c-.09-.06-.13-.14-.1-.24,.14-.34,.22-.55,.24-.7,.16-.46,.3-.88,.4-1.31,.15,0,.27,0,.33,.02,.94,.23,1.64,.45,2.09,.58,.09,.03,.19,.17,.32,.38l-.27,.07c-.31,.58-.63,1.65-.99,3.19-.36,1.54-.53,2.51-.49,2.96,.12-.09,.23-.28,.32-.37,.14-.13,.42-.65,.69-.81,.09-.03,.08-.24,.17-.28,.14-.22,.31-.46,.51-.68l.83-.99c.26-.22,.53-.35,.77-.36,.33,0,.72,.06,1.18,.22,.15,.02,.61,.19,.88,.21,.15,.02,.28,.11,.34,.26h.03v.09s-.03,.06-.03,.09c.07,.24,.11,.48,.12,.75v.6l.02,.69v.03c-.02,.15-.08,.36-.1,.6-.02,.33-.07,.6-.15,.76-.03,.09-.05,.15-.02,.15,.06,.06,.1,.15,.1,.24s-.02,.18-.05,.3c-.05,.18-.08,.33-.07,.48,0,.09,.04,.21,.07,.33,.04,.15,.08,.57,.33,.68,.2-.16,.47-.29,.79-.45,.09-.09,.35-.25,.54-.08l.2-.19-.02,.12h0Z"/>
    </g>
  </g>
</svg>