<?xml version="1.0" encoding="utf-8"?>
<!-- Generator: Adobe Illustrator 26.5.0, SVG Export Plug-In . SVG Version: 6.00 Build 0)  -->
<svg version="1.1" id="Layer_1" xmlns="http://www.w3.org/2000/svg" xmlns:xlink="http://www.w3.org/1999/xlink" x="0px" y="0px"
	 viewBox="0 0 283.46 113.39" style="enable-background:new 0 0 283.46 113.39;" xml:space="preserve">
<style type="text/css">
	.st0{opacity:0.43;fill:url(#SVGID_1_);}
	.st1{fill:url(#SVGID_00000158732221403123598230000017392205424745467282_);}
	.st2{fill:url(#SVGID_00000178174287624431361420000015553402248283915918_);}
	.st3{opacity:0.43;fill:url(#SVGID_00000155133398141659986490000011705389215706355624_);}
	.st4{fill:url(#SVGID_00000048466857888978470710000013350721698985576883_);}
	.st5{fill:url(#SVGID_00000098916596725467361460000000669665032330677693_);}
	.st6{fill:url(#SVGID_00000146479721139622817590000007952411801585596858_);}
	.st7{fill:url(#SVGID_00000069388555048454436350000017393996481008215710_);}
	.st8{fill:url(#SVGID_00000168096120240349057990000010075960308546593718_);}
	.st9{fill:url(#SVGID_00000083071635839716409340000016873965323888090775_);}
	.st10{fill:url(#SVGID_00000090261688181167474830000002729605321096016537_);}
	.st11{opacity:0.43;fill:url(#SVGID_00000052069449477898638050000005855136081353071760_);}
	.st12{display:none;}
	.st13{display:inline;fill:#FFFFFF;}
	.st14{fill:url(#SVGID_00000004548407172229266010000008338658321968771494_);}
	.st15{fill:url(#SVGID_00000062181321627978807830000009143704306787073195_);}
	.st16{fill:url(#SVGID_00000132808202367165629080000003617379308860466840_);}
	.st17{fill:url(#SVGID_00000092446776325734656650000000855770235642987166_);}
	.st18{fill:url(#SVGID_00000157294987056745553870000012201900644359230593_);}
	.st19{fill:url(#SVGID_00000067198558434767735890000007072309213884509092_);}
	.st20{fill:url(#SVGID_00000004514632005069227390000000762742279564999336_);}
	.st21{opacity:0.43;fill:url(#SVGID_00000075143879276972465760000003244832955657104018_);}
	.st22{fill:#333333;}
	.st23{fill:url(#SVGID_00000140010804886594095860000010133794049158618035_);}
	.st24{fill:url(#SVGID_00000152975435852709085080000011419406678953095829_);}
	.st25{fill:url(#SVGID_00000086675482076614260840000013959780881158399130_);}
	.st26{fill:url(#SVGID_00000145776436624435556370000009505319305491805849_);}
	.st27{fill:url(#SVGID_00000145777751643592748050000014267606701219144077_);}
	.st28{fill:url(#SVGID_00000155826573688056646070000004397407394278269099_);}
	.st29{fill:url(#SVGID_00000152977129156003611180000013849473780916464020_);}
	.st30{opacity:0.43;fill:url(#SVGID_00000160153845082414524610000004253881752539513745_);}
	.st31{fill:#FFFFFF;}
	.st32{opacity:0.43;fill:url(#SVGID_00000094608043415697324560000007387239661961331121_);}
	.st33{fill:#5E17A9;}
	.st34{fill:url(#SVGID_00000111185953615196475760000010364545561982241188_);}
	.st35{fill:url(#SVGID_00000087381164818790201100000009632463248889922967_);}
	.st36{fill:url(#SVGID_00000098220747353152369850000016106958516256970122_);}
	.st37{fill:url(#SVGID_00000014621325229544467250000000779440884574939549_);}
	.st38{fill:url(#SVGID_00000020389670075408726560000002298992370011187585_);}
	.st39{fill:url(#SVGID_00000061461747213422389390000008802578247383346081_);}
	.st40{fill:url(#SVGID_00000047054104033161236630000008883228853990806410_);}
	.st41{fill:#4D4D4D;}
	.st42{fill:#8C8C8C;}
	.st43{fill:#CCCCCC;}
	.st44{fill:#E6E6E6;}
	.st45{fill:#FF7000;}
	.st46{fill:#FED23D;}
	.st47{fill:#FEF163;}
	.st48{fill:#E50040;}
	.st49{fill:#D90000;}
	.st50{fill:none;}
	.st51{font-family:'MyriadPro-Regular';}
	.st52{font-size:10px;}
</style>
<radialGradient id="SVGID_1_" cx="948.4976" cy="742.3133" r="10.2521" gradientTransform="matrix(10.5941 0 0 -0.7078 -9906.7119 619.8397)" gradientUnits="userSpaceOnUse">
	<stop  offset="0" style="stop-color:#82928F"/>
	<stop  offset="0.4512" style="stop-color:#BCCCC6"/>
	<stop  offset="1" style="stop-color:#FFFFFF"/>
</radialGradient>
<path class="st0" d="M250.34,94.43c0-4.01-48.63-7.26-108.61-7.26c-59.98,0-108.61,3.25-108.61,7.26c0,4.01,48.63,7.26,108.61,7.26
	C201.72,101.69,250.34,98.44,250.34,94.43z"/>
<g>
	<path d="M107.11,41.93c-0.21-0.19-0.47-0.35-0.47-0.35c-0.17-0.07-0.33-0.12-0.47-0.24c-0.68-0.41-1.4-0.66-2.07-0.97
		c-0.36-0.13-0.77-0.3-1.17-0.23c-0.19,0.21-0.17,0.41-0.21,0.61c-0.1,0.76-0.31,1.52-0.56,2.24c-0.33,1.12-0.71,2.2-1.1,3.28
		c-0.16,0.66-0.32,1.32-0.58,1.89c-0.21,0.62-0.42,1.28-0.69,1.85c-0.39,0.98-0.58,1.99-0.91,2.96c-0.25,0.77-0.45,1.58-0.7,2.4
		c-0.08,0.26-0.22,0.47-0.26,0.72c-0.15,0.76-0.25,1.52-0.51,2.19c-0.38,1.13-0.66,2.3-1.04,3.42c-0.33,1.07-0.66,2.2-1.05,3.27
		c-0.72,2.05-1.29,4.19-2.11,6.2c-0.56,1.39-1.17,2.83-1.89,4.23c-0.16-0.19-0.28-0.43-0.24-0.64c0.13-1.16-0.19-2.29,0.08-3.46
		c0.19-0.96,0.28-1.97,0.42-2.93c0.1-0.76,0.31-1.47,0.62-2.14c0.22-0.47,0.29-0.97,0.56-1.39c0.23-0.31,0.41-0.63,0.49-0.98
		c0.25-0.87,0.86-1.46,1.47-2.05c0.26,0.08,0.47,0.22,0.67,0.31c0.41,0.17,0.75-0.05,0.72-0.55c-0.02-0.25-0.08-0.5-0.34-0.68
		c-0.8-0.56-1.74-0.64-1.74-0.64c-1.21-0.09-2.17,0.46-2.46,0.62c-1.31,0.76-1.9,1.93-2.47,3.11c-0.68,1.39-0.82,2.54-1.2,4.13
		c-0.42,1.73-0.46,3.19-0.42,4.2c0.07,1.61,0.15,3.18,1.27,4.13c0.24,0.2,0.43,0.34,0.77,0.48c1.08,0.43,2.2,0.76,3.39,0.59
		c0.65-0.09,1.23-0.38,1.55-0.9c0.36-0.57,0.83-1.1,0.99-1.72c0.25-0.77,0.71-1.45,1.06-2.17c0.27-0.47,0.39-1.03,0.71-1.45
		c0.15-0.01,0.3-0.02,0.4,0.03c0.29,0.63,0.38,1.33,0.63,1.96c-0.37,0.46-0.21,0.82,0.02,1.17c0.06,0.19,0.11,0.38,0.17,0.58
		c-0.26,0.12-0.28,0.36-0.34,0.62c0.01,0.15,0.06,0.2,0.17,0.24c0.1,0.04,0.2,0.04,0.25-0.07c0.04-0.09,0.08-0.13,0.16-0.11
		c0.11,0.31,0.21,0.63,0.34,0.93c0.64,1.36,1.41,2.52,2.66,3.29c0.73,0.46,1.49,0.66,2.29,0.56c0.55-0.03,1.09-0.17,1.57-0.6
		c-0.47-0.37-0.7-0.76-0.63-1.31c-0.01-0.1-0.06-0.2-0.17-0.24c-0.43-0.42-0.66-1.01-0.95-1.54c-0.28-0.43-0.56-0.97-0.74-1.46
		c-0.11-0.3-0.18-0.62-0.24-0.94c-0.03-0.82-0.14-1.63-0.37-2.42c-0.07-0.3-0.14-0.59,0.04-0.91c0.04-0.1,0.04-0.2,0.03-0.35
		l0.03-1.86c-0.01-2.6,0.12-5.22,0.46-7.8c0.25-1.62,0.5-3.19,0.8-4.81c0.24-0.97,0.38-1.98,0.61-2.94
		c0.32-1.32,0.68-2.65,1.05-3.97l0.98-3.47C107.26,43.82,107.43,42.22,107.11,41.93z"/>
	<path d="M94.97,49.47c-1.49-1.27-3.26-2.1-5.09-2.16c-2.21-0.11-4.42-0.05-6.58,0.5c-1.22,0.28-2.49,0.44-3.76,0.94
		c-0.5,0.22-0.83,0.55-1.11,1c-0.88,1.71-1.6,3.48-2.38,5.25c-0.05,0.06,0,0.11,0,0.28c1.44-0.61,2.82-1.16,4.31-1.66
		c1.16-0.39,2.38-0.44,3.54-0.39c0.72-0.05,1.27,0.39,1.55,1c0.39,0.61,0.88,1.27,0.94,2.21c-0.55-0.22-0.22,0.39-0.44,0.55
		c-0.44-0.11-1.05-0.5-1.05,0.44c0,0.05-0.11,0.11-0.22,0.05c-1.6,0.55-3.26,1.11-5.03,1.16c-0.17,0.06-0.39,0.06-0.44,0.17
		c-1,1.05-2.27,1.6-3.59,1.99c-0.06,0-0.11,0.11-0.17,0.22c0.06-0.39-0.05-0.66-0.39-0.72c-0.33,0-0.55,0.11-0.5,0.5
		c0.05,0.17,0,0.33-0.22,0.44c-0.66,0.33-0.72,1-0.94,1.66c-1.16,3.81-1.88,7.63-2.16,11.66l-0.05,0.55
		c0.39,0.17,0.61-0.11,0.88-0.22c2.38-1.27,4.86-2.49,7.52-2.93c1.49-0.33,2.82-0.99,4.42-0.44c0.5,0.22,0.94,0.39,1.22,0.83
		c0.39,0.5,0.66,1.05,1.11,1.49c0.44,0.66,0.33,1.27,0.06,1.88c-1.44-0.55-2.76,0.17-4.15,0.55c-3.1,0.88-6.08,2.1-8.79,3.81
		c-0.39,0.22-0.77,0.28-1.16,0.17c-0.05-0.11,0.11-0.22,0.17-0.33h-0.06c0,0-0.05-0.06-0.17-0.11h0.05c-0.5,0.05-1.1-0.28-1.44,0.5
		c0.06,0.22,0.28,0,0.39,0.11c-0.33,0.39-0.33,0.39-0.61-0.06c-0.17,0.06-0.33,0.11-0.5,0.22c-0.61-0.28-0.83-0.88-1.33-1.27
		c-0.28-0.17-0.44-0.44-0.83-0.5c-0.5,0-0.44-0.61-0.61-0.94c-0.61-0.83-0.44-1.77-0.55-2.71c0-0.44,0.28-0.77,0.22-1.16
		c-0.11-0.94-0.11-1.82,0.11-2.76c0.17-0.99,0.11-1.99,0.5-2.87c0.22-0.66,0.05-1.38,0.28-2.1c0.28-1.05,0.44-2.16,0.66-3.21h-0.06
		c0.5-0.94,0.44-2.05,1-2.99c0.44-0.55,0-1.66,1.16-1.82c-0.55-0.55-0.44-0.88,0.17-1.38c0.5-0.28,0.77-1.16,0.61-1.6
		c-0.17-0.72,0.44-1,0.55-1.55c0-0.22,0.5-0.28,0.11-0.66c-0.28-0.28-0.5-0.06-0.72,0.11c-0.22-0.44-0.11-0.83,0.11-1.38
		c-0.72,0.66-1,0.17-1.22-0.28c-0.44-0.72-0.83-1.38-1.16-2.1c-0.39-0.66,0.05-1.16,0.55-1.49c2.1-1.49,4.42-2.76,6.85-3.59
		c1.82-0.66,3.7-1.38,5.75-1.6c2.1-0.28,4.09-0.44,6.14-0.22c2.43,0.22,4.75,1.05,5.97,3.48C94.91,47.09,95.3,48.19,94.97,49.47z
		 M66.89,74.12c0,0,0,0-0.05-0.05h0.05V74.12z M67.94,69.75c-0.22,0.11-0.28,0.28-0.11,0.55C68,70.08,68,69.92,67.94,69.75z
		 M70.15,63.4c-0.17,0.06-0.22,0.17-0.17,0.28c0,0.05,0.05,0.05,0.11,0.05C70.21,63.67,70.15,63.56,70.15,63.4z M70.32,71.3h-0.05
		c0,0.22-0.06,0.44-0.06,0.72h0.06C70.26,71.74,70.32,71.52,70.32,71.3z M71.75,56.15c-0.39,0.5-0.39,0.5-0.22,0.94
		C71.64,56.76,71.7,56.54,71.75,56.15z M79.66,58.53c0.33-0.17,0.72-0.33,1.1-0.44C80.32,58.03,79.93,58.09,79.66,58.53z
		 M83.36,57.21c0,0.17,0.11,0.22,0.39,0.28C83.75,57.09,83.64,57.04,83.36,57.21z"/>
	<path d="M115.23,79.33c-0.63-0.34-1.25-0.51-1.87-0.62c-1.36-0.45-1.36-1.19-1.31-2.27c0-0.74,0.28-1.42,0.57-2.04
		c0.11-0.34,0.23-0.68,0.28-0.97c0-0.68,0.34-1.25,0.57-1.88c0.23-0.51,0.28-1.08,0.57-1.53c-0.62-0.85-1.25-1.59-1.82-2.33
		c-0.51-0.68-0.45-1.19,0.23-1.76c0.45-0.45,0.85-0.85,1.42-1.14c0.28-0.17,0.57-0.4,0.85-0.45c0.51-0.11,0.91-0.46,1.19-0.8
		c0.23-0.34,0.57-0.57,0.97-0.63c0.34,0,0.51-0.23,0.62-0.57c0.34-0.68,0.68-1.25,1.14-1.88c0.11-0.06,0.17-0.23,0.17-0.34
		c0.23-0.4,0.45-0.79,0.79-1.14c0.23-0.23,0.51-0.4,0.4-0.8c-0.06-0.06,0-0.23,0.06-0.28c0.46-0.4,0.46-1.02,0.68-1.53
		c0.23-0.63,0.57-1.19,1.02-1.7c0.4-0.4,0.74-0.79,0.74-1.36c0-0.06,0.06-0.11,0.06-0.11c0.97-1.02,1.14-2.44,2.1-3.46
		c0.57-0.57,0.97-1.42,1.36-2.22c0.06-0.11,0.17-0.23,0.28-0.4c0.45-0.4,0.79-0.91,0.97-1.48c0.11-0.51,0.62-0.85,0.79-1.25
		c0.34-0.68,0.8-1.25,1.25-1.87c0.17-0.23,0.28-0.51,0.51-0.63c0.11-0.06,0.17-0.17,0.17-0.34c-0.06-0.23,0.11-0.34,0.28-0.51
		c0.34-0.51,0.45-0.57,0.97-0.28c0.57,0.4,1.14,0.74,1.76,1.08c0.34-0.11,0.23-0.57,0.51-0.79c0.23-0.11,0.57,0,0.8,0.11
		c1.14,0.63,2.33,1.02,3.29,1.99c0.17,0.17,0.57,0.11,0.68,0.4c0.23,0.34,0.4,0.85,0.23,1.31c-0.28,1.53-0.74,3.18-1.14,4.71
		c-0.45,1.53-0.91,3.07-1.19,4.71c-0.11,0.46-0.34,1.02-0.62,1.48c-0.28,0.63-0.45,1.25-0.62,1.93c0.79,0.28,1.7,0.51,2.1,1.36
		c0.46,0.74,0.97,1.42,0.63,2.44c-0.06,0-0.17,0.06-0.34,0.17c-0.11,0.11,0.11,0.23,0,0.4c-0.79,0.28-1.53,0.46-2.27,0.57
		c-1.14,0.23-1.19,0.23-1.25,1.31c-0.06,0.74-0.34,1.36-0.74,1.93c-0.17-0.8,0.28-1.65,0.06-2.56c-0.28,0.91-0.23,1.76-0.34,2.5
		c-0.06,0.51-0.17,0.97-0.34,1.48c-0.23,0.62-0.23,1.31-0.23,1.99c0,0.4,0,0.74-0.23,1.02c-0.23,0.51-0.23,1.08,0.06,1.53
		c0.17,0.17,0.17,0.34,0.17,0.51c-0.06,0.74-0.06,1.48-0.06,2.1c-0.06,0.63,0.06,1.14,0.4,1.7c0.17,0.28,0.34,0.63,0.57,0.97
		c-0.23,0.28-0.51,0.34-0.8,0.34c-0.57,0-1.14-0.06-1.7-0.17c-0.85-0.17-1.36-0.74-1.7-1.36c-0.79-1.19-0.79-2.56-0.97-3.81
		c0.34-0.74-0.06-1.53,0.17-2.21c0.11-0.46,0.11-0.85-0.17-1.25c0.4-0.4,0.34-0.8,0.34-1.25c-0.06-0.68-0.06-1.36,0.06-2.04
		c0-0.34,0.11-0.74-0.11-1.14c-0.57,0.17-1.19,0.28-1.7,0.57c-1.31,0.45-2.5,0.97-3.75,1.48c-0.68,0.28-1.08,0.79-1.36,1.36
		c-0.51,1.25-1.02,2.44-1.59,3.58c-0.79,1.93-1.53,3.81-2.04,5.85c-0.23,0.79-0.28,1.59,0.06,2.39c-0.28,0.28-0.57,0.28-0.85,0.28
		C116.42,79.67,115.8,79.61,115.23,79.33z M127.22,58.82c0.51-0.17,1.02-0.4,1.53-0.45c0.57-0.06,0.97-0.63,0.97-1.31
		c0.11-1.02,0.4-1.93,0.68-3.01c0.11-0.45,0.23-0.85,0.28-1.25c0.06-0.57,0.06-1.14,0.4-1.7c0-0.06,0-0.17-0.17-0.34
		c-1.7,2.67-3.29,5.23-4.77,8.01C126.59,59.05,126.93,58.94,127.22,58.82z M134.37,57.57c0-0.11,0-0.11-0.06-0.11
		c0,0-0.06,0-0.06,0.11c0,0.06,0,0.06,0.06,0.06C134.32,57.63,134.32,57.57,134.37,57.57z"/>
	<path d="M138.95,77.83c-0.62-0.11-1.02-0.51-1.25-1.02l-0.34-0.97c-0.23-1.48-0.51-3.07-0.34-4.54c0-0.45,0.17-0.97,0.11-1.42
		c0.4-0.28,0-0.68,0.17-1.02c0.23-0.34,0.28-0.74,0.34-1.14c0-0.17,0-0.34-0.06-0.57c-0.11-0.4,0-0.62,0.4-0.85
		c-0.06-0.46-0.06-0.91,0.23-1.36c0.06-0.11,0.11-0.28,0.11-0.4c-0.23-0.51,0.17-0.97,0.23-1.42c0-0.11,0.06-0.17,0.11-0.17
		c0.57-0.63,0.51-1.31,0.4-2.04c0-0.17-0.06-0.34,0.06-0.51c0.23-0.68,0.28-1.36,0.62-2.04c0.17-0.57,0.28-1.31,0.51-1.93
		c0.06-0.23,0.06-0.45,0.4-0.45c0.23-0.11,0.4-0.45,0.4-0.68c0-0.28,0.11-0.57,0-0.85c-0.11-0.28,0.11-0.68,0.17-1.02
		c0.23-0.74,0.57-1.48,0.79-2.22c0.23-0.51,0.4-1.02,0.74-1.48l0.17-0.28c0.57-2.33,1.7-4.32,2.78-6.36c0.51,0,0.85,0.17,1.19,0.4
		c0.68,0.45,1.31,0.85,1.99,1.36c0.06,0,0.17,0.06,0.23,0.11c0.85,0.74,0.85,0.74,0.28,1.7c-0.17,0.34-0.28,0.63-0.4,0.97
		c-0.34,1.25-0.85,2.56-1.42,3.75c-0.28,0.57-0.51,1.14-0.51,1.76c0,0.23-0.06,0.4-0.11,0.51c-0.4,0.97-0.74,1.93-1.08,2.9
		c-0.11,0.28-0.17,0.63-0.45,0.85c-0.06,0.06-0.11,0.11-0.11,0.17c0.23,0.63-0.28,1.14-0.34,1.7c0,0.63-0.28,1.19-0.51,1.82
		c-0.23,0.63-0.4,1.25-0.62,1.87c-0.06,0.23-0.06,0.45-0.17,0.57c-0.23,0.17-0.06,0.34,0,0.45c0.28,0,0.4-0.17,0.57-0.34
		c0.91-1.19,2.22-1.99,3.46-2.67c1.19-0.68,2.5-0.85,3.75-0.23c0.97,0.51,1.93,1.08,2.67,1.82l0.17,0.17
		c0.4,0.45,0.57,0.91,0.4,1.53c-0.17,1.14-0.8,2.1-1.19,3.13c-0.23,0.74-0.62,1.31-1.08,1.93c-0.11,0.17-0.23,0.34-0.4,0.51
		c-0.11,0.11-0.23,0.23-0.23,0.34c-0.4,1.25-1.36,2.04-2.33,2.67c-0.34,0.23-0.62,0.45-0.8,0.85c-0.11,0.51-0.62,0.74-1.08,0.91
		c-0.85,0.34-1.53,0.91-2.33,1.36c-0.06,0.06-0.17,0.17-0.28,0.17c-0.85-0.11-1.7,0.28-2.61,0.11c-0.11,0-0.17,0.06-0.28,0.06
		c-0.06,0.51-0.06,0.97-0.06,1.53c-0.74,0.34-1.53,0.4-2.33,0.17C139.41,77.94,139.18,77.83,138.95,77.83z M151,62.95
		c-0.06,0-0.06-0.06-0.06-0.06c-0.91,0.23-1.59,0.97-2.44,1.31c-0.06,0-0.06,0.06-0.11,0c-0.4,0.91-1.36,1.31-2.04,1.87
		c-0.57,0.51-1.19,1.08-1.59,1.7c-0.28,0.46-0.51,0.91-1.02,1.19c-0.23,0.11-0.28,0.34-0.45,0.45c-0.34,0.51-0.45,1.19-0.85,1.7
		c-0.62,0.85-0.4,1.76-0.57,2.73C145.54,72.04,150.26,66.7,151,62.95z"/>
	<path d="M156.85,76.49c-0.51-0.17-0.91-0.45-1.14-0.85c-0.57-0.85-0.68-1.76-0.62-2.73c0.06-0.97,0.23-1.99,0.34-2.95
		c0-0.57,0.17-1.14,0.23-1.59l0.34-2.39c0.34-1.19,0.62-2.39,0.91-3.52c0.23-0.85,0.34-1.7,0.63-2.56c0.45-1.19,0.62-2.27,1.19-3.41
		c0.23-0.34,0.23-0.74,0.34-1.14c0.23-0.57,0.51-1.19,0.68-1.88c0.23-0.45,0.4-0.91,0.51-1.36c0.28-0.57,0.62-1.25,0.85-1.93
		c0.4-0.79,0.68-1.42,1.02-2.16c0.51-1.14,1.02-2.22,1.59-3.29c0.85-1.36,1.59-2.78,2.39-4.09c0.34-0.4,0.51-0.85,0.68-1.25
		c0.11-0.17,0.23-0.34,0.34-0.57c1.31,1.02,2.39,2.16,3.69,3.07c-0.11,0.57-0.34,1.02-0.45,1.53c-0.28-0.11-0.4,0.11-0.57,0.4
		c-1.65,2.61-3.12,5.34-4.32,8.18c-0.45,1.08-0.91,2.1-1.31,3.24c-0.23,0.57-0.4,1.14-0.68,1.65c-0.06,0.4-0.28,0.57-0.57,0.79
		c0.23,0.28,0.17,0.63,0.11,0.91c-0.34,0.97-0.57,1.99-0.97,2.78c-0.28,0.79-0.34,1.53-0.62,2.33c-0.11,0.4-0.4,0.68-0.4,1.14
		c-0.06,0.4,0,0.8-0.23,1.14c-0.23,0.28-0.17,0.57-0.23,0.79c-0.11,0.28-0.28,0.57-0.17,0.85c0,0.11-0.23,0.4-0.17,0.4
		c0.17,0.17,0,0.23-0.11,0.4c-0.11,0.34-0.17,0.74-0.28,1.02c-0.06,1.02-0.11,2.04-0.28,3.13c0,0.06,0,0.28,0.06,0.28
		c0.28,0.11,0.17,0.28,0.11,0.34c0,0.23-0.06,0.46-0.17,0.62l0.17,0.11c0.4-0.4,0.79-0.79,1.25-1.19c1.02-1.31,2.05-2.5,3.07-3.69
		c0.8-1.02,1.53-2.1,2.33-3.24c0.11-0.11,0.23-0.28,0.45-0.51c0.11-0.17,0.23-0.46,0.34-0.62c0.4-0.46,0.74-0.91,1.19-1.42
		c0.11-0.11,0.34-0.11,0.51-0.17c0.06,0.57-0.57,0.79-0.51,1.31c0.06-0.06,0.17-0.06,0.28-0.11c-0.06,0.23-0.17,0.51-0.23,0.79
		c0.17,0,0.23,0.06,0.4,0.11c-0.11,0-0.17,0.06-0.17,0.11c-0.17,0.51-0.23,0.97-0.4,1.42c0,0.28,0.11,0.45-0.23,0.62
		c-0.17,0.11-0.28,0.34-0.23,0.63c0.06,0.23,0.06,0.45-0.28,0.45c0,0.06-0.11,0.28-0.11,0.34c-0.06,0.28,0,0.51-0.11,0.68
		c-0.34,0.23-0.45,0.57-0.51,0.85c-0.23,0.46-0.51,0.68-0.68,1.08c-0.57,0.57-1.02,1.14-1.59,1.76c-0.45,0.57-1.02,1.14-1.48,1.76
		c-0.34,0.28-0.46,0.68-0.68,0.97c0.11,0.28,0.23,0.34,0.63,0.11c0.28-0.34,0.57-0.62,0.79-0.97c0.4-0.34,0.57-0.68,1.02-0.97
		c0.28-0.17,0.45-0.45,0.68-0.74c0.17-0.17,0.4-0.28,0.68-0.4l-1.08,1.25c-0.57,0.85-1.25,1.59-1.93,2.39
		c-0.74,0.91-1.65,1.19-2.84,0.85C159.12,77.06,157.98,76.83,156.85,76.49z M158.78,73.65c0,0.51,0.06,0.91,0.06,1.36
		C159.18,74.5,158.95,74.16,158.78,73.65z M159.52,69.39h-0.17c-0.11,0.28-0.11,0.51-0.11,0.79c0,0.06,0.11,0.11,0.28,0.17
		C159.52,69.96,159.46,69.73,159.52,69.39z M159.69,68.08c-0.34,0.62-0.34,0.62-0.11,0.85C159.58,68.65,159.63,68.37,159.69,68.08z
		 M159.92,66.61c-0.06-0.11,0-0.28,0.06-0.45c0.23-0.46,0.45-1.02,0.57-1.59c0.11-0.63,0.11-1.25,0.28-1.88
		c-0.11,0.06-0.17,0.06-0.23,0.11c-0.17,0.45-0.17,0.91-0.28,1.31c-0.06,0.46-0.17,0.91-0.34,1.31c-0.06,0.51,0.06,1.19-0.45,1.59
		c-0.06,0.06,0,0.23-0.06,0.34l0.23,0.34C159.8,67.4,159.97,67,159.92,66.61z M160.77,60.7h-0.11c-0.11,0.11-0.11,0.28-0.17,0.34
		c0.11,0,0.17,0,0.23,0.06C160.71,60.98,160.71,60.81,160.77,60.7z M161.05,62.12l-0.11-0.17c0,0.06-0.11,0.11-0.06,0.17
		c0,0,0.06,0,0.11,0.06C161.05,62.17,161.11,62.17,161.05,62.12z M161.17,61.66c-0.06-0.11-0.06-0.23-0.06-0.4
		c-0.06-0.06-0.06-0.06-0.11-0.06l-0.06,0.23c0.06,0.11,0.11,0.11,0.11,0.17C161.11,61.66,161.11,61.66,161.17,61.66z"/>
	<path d="M179.9,62.17c-0.11,0.11-0.23,0.34-0.23,0.46c-0.06,0.68-0.28,1.19-1.14,1.25c0.06,0.28,0.51,0.51,0.11,0.8
		c-0.28,0.23-0.17-0.17-0.4-0.4c-0.11,0.91-1.19,0.68-1.42,1.42c-0.11,0.11-0.23,0.23-0.06,0.46c-0.28,0.28-0.62,0.45-0.85,0.74
		c-0.34,0.51-0.91,0.91-1.08,1.48v0.11h-0.06c0,0.17,0,0.28,0.06,0.34c0,0.11,0.06,0.34-0.06,0.46c-0.11-0.11-0.17-0.23-0.34-0.4
		c-0.23,0.74-0.97,0.74-1.25,1.14c-0.68,1.02-1.82,1.36-2.67,2.1c-0.57,0.51-1.14,0.11-1.7-0.17c-0.45,0.91-0.11,2.67,0.68,3.29
		c0.23,0.23,0.51,0.11,0.8,0.06c1.65-0.34,3.12-1.25,4.54-2.1c1.14-0.74,1.99-1.82,3.07-2.44c0.34-0.17,0.28-0.8,0.85-0.74
		c-0.11,0.34-0.74,0.63,0.06,0.85c-0.11,0.23,0.17,0.45,0,0.79c-0.28,0.85-0.97,1.48-1.25,2.22c-0.23,0.51-0.57,0.97-1.08,1.25
		c-1.08,0.62-1.99,1.42-3.18,1.7c-1.31,0.4-2.39,0.17-3.52-0.34c-1.53-0.79-3.18-1.53-3.98-3.18c-0.91-1.99-0.68-3.86,0-5.68
		c0.51-1.36,0.97-2.67,1.65-3.98c1.08-2.22,2.44-4.26,4.09-6.13c1.59-1.7,3.24-2.56,5.17-1.42c1.53,0.91,2.9,2.21,3.98,3.69
		C181.26,60.53,180.81,61.66,179.9,62.17z M175.47,59.96c-0.11-0.11-0.4-0.17-0.45,0c-0.11,0.28-0.68,0.4-0.34,0.79
		c0.11,0.4-0.28,0.4-0.4,0.63l-0.17-0.4c-1.19,1.02-1.65,2.56-2.67,3.81c-0.11-0.34,0.23-0.51,0-0.85c-0.62,1.08-1.14,2.1-1.65,3.24
		c0.28-0.28,0.4-0.62,0.74-0.85v0.4c0,0.06,0,0.11-0.06,0.17c0.06-0.06,0.11-0.06,0.17-0.06c0.57-0.4,1.31-0.68,1.76-1.25
		c1.31-1.48,2.27-3.18,3.12-5C175.58,60.41,175.75,60.13,175.47,59.96z M170.58,66.32h-0.06H170.58z M171.49,63.71
		c0,0.06,0.11,0.11,0.17,0.11l0.11-0.17c0-0.06-0.06-0.11-0.06-0.23C171.55,63.6,171.49,63.65,171.49,63.71z M174.84,68.82
		c0.06-0.11,0.11-0.17,0.34-0.11C175.01,68.82,174.9,68.82,174.84,68.82z M175.18,68.71c-0.11-0.11-0.06-0.23,0.06-0.23
		c0.17,0.06,0.23,0.23,0.11,0.34C175.3,68.88,175.18,68.82,175.18,68.71z M176.77,66.15c0-0.06,0.06-0.06,0.06-0.11
		C176.83,66.09,176.77,66.09,176.77,66.15z M176.94,65.81c0,0.06-0.06,0.17-0.11,0.23C176.89,65.98,176.89,65.87,176.94,65.81z
		 M177.91,64.05c-0.23,0.28-0.51,0.4-0.4,0.74C177.68,64.62,177.91,64.5,177.91,64.05z M179.05,63.14c-0.17,0.06-0.17,0.17-0.17,0.4
		C178.99,63.37,179.16,63.31,179.05,63.14z"/>
</g>
<g>
	
		<linearGradient id="SVGID_00000173868061508645458180000003971914857661179054_" gradientUnits="userSpaceOnUse" x1="-459.9824" y1="112.9735" x2="-446.6511" y2="124.552" gradientTransform="matrix(-1.0205 0.1939 -0.1879 -0.9892 -244.0976 228.9644)">
		<stop  offset="0" style="stop-color:#0131B9"/>
		<stop  offset="1" style="stop-color:#D90000"/>
	</linearGradient>
	<path style="fill:url(#SVGID_00000173868061508645458180000003971914857661179054_);" d="M199.1,27.81
		c-2.27-1.18-3.77-3.49-4.1-6.43c0.26-0.2,0.52-0.39,0.78-0.59C197.5,22.5,198.65,24.96,199.1,27.81L199.1,27.81z"/>
	
		<linearGradient id="SVGID_00000106856301049150092830000009959347510014326937_" gradientUnits="userSpaceOnUse" x1="-352.138" y1="19.7975" x2="-322.4998" y2="20.2584" gradientTransform="matrix(-1.0377 6.537741e-03 -7.805502e-03 0.9865 -142.8729 8.02)">
		<stop  offset="0" style="stop-color:#114FEE"/>
		<stop  offset="0.4793" style="stop-color:#D90000"/>
		<stop  offset="1" style="stop-color:#FEF163"/>
	</linearGradient>
	<path style="fill:url(#SVGID_00000106856301049150092830000009959347510014326937_);" d="M217.33,16.7c0,0.01,0,0.02-0.01,0.03
		c-0.86,3.7-3.39,7.07-6.48,9.28c-1.96,1.4-4.14,2.33-6.27,2.59c-5.52,0.66-8.87-2.68-9.14-7.44c-1.48,1.02-2.86,2.17-4.12,3.41
		c1.09,6.53,6.34,10.14,12.82,9.7c2-0.14,4.09-0.67,6.13-1.55c1.78-0.76,3.51-1.79,5.1-3.03c0.56-0.44,1.1-0.9,1.62-1.38
		c2.82-2.61,5.09-5.87,6.41-9.43C221.46,17.91,219.43,17.18,217.33,16.7z"/>
	
		<linearGradient id="SVGID_00000013908306915480440440000014621392427776084916_" gradientUnits="userSpaceOnUse" x1="-372.9192" y1="115.4444" x2="-360.9932" y2="139.5086" gradientTransform="matrix(-1.0019 0.0656 0.0319 0.9016 -144.8912 -56.9006)">
		<stop  offset="0" style="stop-color:#FEF163"/>
		<stop  offset="0.5092" style="stop-color:#D90000"/>
		<stop  offset="1" style="stop-color:#0131B9"/>
	</linearGradient>
	<path style="fill:url(#SVGID_00000013908306915480440440000014621392427776084916_);" d="M239.17,41.65
		c-0.15-1.51-0.38-2.51-0.68-3.6c-4.04,1.42-7.27,2.38-10.76,1.56c-0.85-0.2-1.6-0.39-2.31-0.61c-2.04-0.65-3.6-1.64-5.45-4.36
		c-1.08-1.59-1.54-3.91-1.3-6.41c0.32-3.23,1.82-6.76,4.7-9.38c-1.92-0.94-3.56-1.48-4.06-1.65c-0.5-0.17-1.66-0.46-2.04-0.5
		c-2.41,2.83-3.89,6.71-4.63,9.78c-0.11,0.45-0.2,0.9-0.27,1.36c-0.25,1.61-0.27,3.22-0.03,4.81c0.29,1.86,0.95,3.69,2.04,5.44
		c1.08,1.73,2.56,3.27,4.33,4.55c1.53,1.11,3.28,2.02,5.18,2.7c0.48,0.17,0.97,0.33,1.47,0.47c4.13,1.18,9.01,1.43,14,0.48
		c0.03-0.53,0-1.03,0-1.35C239.37,44.6,239.32,43.15,239.17,41.65z"/>
	
		<linearGradient id="SVGID_00000151525701816706520860000003836265873352530612_" gradientUnits="userSpaceOnUse" x1="-327.4139" y1="70.513" x2="-335.1075" y2="95.9535" gradientTransform="matrix(-1.0366 0.0571 0.047 1.0064 -121.88 -11.5841)">
		<stop  offset="0" style="stop-color:#FEF163"/>
		<stop  offset="0.507" style="stop-color:#D90000"/>
		<stop  offset="0.7705" style="stop-color:#0131B9"/>
	</linearGradient>
	<path style="fill:url(#SVGID_00000151525701816706520860000003836265873352530612_);" d="M222.78,71.88
		c-3.17-3.17-5.26-7.67-5.55-11.67c-0.22-3.06,0.31-5.9,1.48-7.84c2-3.33,3.64-4.57,5.75-5.45c0.74-0.3,1.53-0.56,2.42-0.85
		c3.61-1.17,8.2-1.24,12.47,0.1c0.09-1.13,0.04-2.56-0.07-3.65c-0.11-1.09-0.26-2.26-0.42-3.15c-0.16-0.89-0.26-0.98-0.35-1.46
		c-5.12-0.72-9.9-0.13-14.11,1.42c-0.51,0.19-1.02,0.4-1.51,0.62c-1.96,0.87-3.77,2-5.38,3.34c-1.86,1.56-3.44,3.41-4.64,5.5
		c-1.21,2.1-1.98,4.31-2.37,6.57c-0.33,1.93-0.38,3.89-0.17,5.85c0.06,0.55,0.14,1.11,0.23,1.66c0.68,3.83,2.35,7.69,4.99,11.2
		C218.02,73.66,220.24,73.08,222.78,71.88z"/>
	
		<linearGradient id="SVGID_00000004544577399689034050000002125246903704482708_" gradientUnits="userSpaceOnUse" x1="204.3223" y1="72.2325" x2="212.5453" y2="54.9997">
		<stop  offset="0.0875" style="stop-color:#0131B9"/>
		<stop  offset="0.1554" style="stop-color:#1A2BA3"/>
		<stop  offset="0.3004" style="stop-color:#5C1C6B"/>
		<stop  offset="0.5095" style="stop-color:#C30512"/>
		<stop  offset="0.5513" style="stop-color:#D90000"/>
		<stop  offset="0.9125" style="stop-color:#FEF163"/>
	</linearGradient>
	<path style="fill:url(#SVGID_00000004544577399689034050000002125246903704482708_);" d="M215.68,59.09
		c-1.47-1.39-3.1-2.55-4.81-3.44c-1.94-1-3.98-1.65-5.97-1.86c-2.01-0.22-3.83-0.03-5.49,0.47c-1.42,0.43-2.71,1.09-3.88,1.94
		c-0.4,0.29-0.79,0.61-1.16,0.94c-1.89,1.71-3.43,4.2-4.34,6.9c1.16,1.4,2.35,2.58,3.71,3.8c0-0.01-0.03-0.02-0.03-0.02
		c0.74-3.29,2.55-5.91,5.15-7.21c1.6-0.81,3.5-1.11,5.62-0.76c2.14,0.35,4.25,1.46,6.08,3.09c2.93,2.61,5.14,6.55,5.6,10.88
		c0,0.01,0,0.13,0,0.14c2.75-0.49,4.53-1.05,6.68-2.1c-1.02-4.14-3.04-8.2-5.65-11.18C216.71,60.12,216.2,59.59,215.68,59.09z"/>
	
		<linearGradient id="SVGID_00000163072759974120734460000004773735107804986028_" gradientUnits="userSpaceOnUse" x1="186.6545" y1="55.5188" x2="197.525" y2="51.9894">
		<stop  offset="0.26" style="stop-color:#E50040"/>
		<stop  offset="0.9909" style="stop-color:#5E17A9"/>
	</linearGradient>
	<path style="fill:url(#SVGID_00000163072759974120734460000004773735107804986028_);" d="M198.2,60.25
		c0.06-0.41,0.12-0.83,0.16-1.25c0.17-1.73,0.12-3.52-0.13-5.28c-0.3-2.04-0.87-4.04-1.73-5.86c-0.89-1.88-1.95-3.38-3.14-4.55
		c-0.96-0.94-1.99-1.66-3.07-2.16c-0.3-0.14-0.6-0.26-0.9-0.37c-2.02-0.71-3.87-0.67-5.84,0.15c-0.03,0.3-0.08,0.61-0.11,0.91
		c-0.06,0.66-0.14,1.33-0.15,1.99c-0.01,0.73-0.06,1.46-0.02,2.18c4.21-2.33,7.7,0.81,9.38,4.6c0.71,1.61,1.04,3.98,0.89,6.38
		c-0.18,3.07-0.96,6.2-2.81,7.89c0.98,1.11,2.03,2.15,3.17,3.08c0.27,0.22,0.49,0.39,0.77,0.59
		C196.52,66.41,197.69,63.51,198.2,60.25L198.2,60.25z"/>
	
		<linearGradient id="SVGID_00000083087835636158973240000010168206235136366225_" gradientUnits="userSpaceOnUse" x1="-459.9323" y1="118.1125" x2="-439.7619" y2="97.7347" gradientTransform="matrix(-1.0205 0.1939 -0.1879 -0.9892 -244.0976 228.9644)">
		<stop  offset="0" style="stop-color:#5E17A9"/>
		<stop  offset="0.527" style="stop-color:#D90000"/>
		<stop  offset="1" style="stop-color:#FEF163"/>
	</linearGradient>
	<path style="fill:url(#SVGID_00000083087835636158973240000010168206235136366225_);" d="M189.53,47.36
		c-2.21,0.97-4.08,1.13-6.14,0.46c-0.01-0.31-0.1-0.62-0.11-0.93c-0.01-0.73-0.04-1.46,0-2.19c0.04-0.67,0.03-1.33,0.11-2
		c1.64,0.77,3.3,0.65,5.07-0.23c0.39-0.2,0.79-0.44,1.17-0.72c1.42-1.05,2.64-2.43,3.59-4.37c0.95-1.94,1.48-4.44,1.5-6.36l0,0
		c1.22,1.18,2.7,2.05,4.34,2.57l0,0c-0.34,1.94-0.94,4.06-1.99,6.13c-1.05,2.07-2,3.2-3.4,4.63c-1.06,1.08-2.21,2.01-3.32,2.6
		C190.09,47.11,189.81,47.24,189.53,47.36L189.53,47.36z"/>
</g>
<path d="M131.57,61.75c-1.51-1.15-0.3-3.29,2.68-4.77c2.99-1.48,6.63-1.76,8.14-0.6c1.5,1.15,0.3,3.29-2.69,4.77
	C136.72,62.64,133.07,62.91,131.57,61.75z"/>
<g id="Layer_3">
</g>
<rect x="3.35" y="-12.97" class="st50" width="179.91" height="13.26"/>
<text transform="matrix(1 0 0 1 3.3486 -5.8701)" class="st12 st51 st52">LOGO Full Colour</text>
</svg>
